<svg width="240" height="220" viewBox="0 0 240 220" fill="none" xmlns="http://www.w3.org/2000/svg">
<g clip-path="url(#clip0_1111_1200)">
<path d="M218.96 219.78V197.718C218.96 197.718 228.03 213.359 218.96 219.78Z" fill="#F1F1F1"/>
<path d="M219.521 219.777L202.377 204.856C202.377 204.856 220.665 209.1 219.521 219.777Z" fill="#F1F1F1"/>
<path d="M159.052 97.3485L68.0759 147.756C67.7574 147.932 67.3784 147.981 67.0219 147.892C66.6654 147.804 66.3605 147.585 66.1741 147.283L7.67034 52.3902C7.48472 52.0883 7.43299 51.729 7.52649 51.391C7.61998 51.0531 7.85108 50.764 8.16907 50.5874L99.1456 0.179838C99.464 0.00387517 99.843 -0.045168 100.2 0.043468C100.556 0.132104 100.861 0.351182 101.047 0.652639L159.551 95.5457C159.737 95.8475 159.788 96.2069 159.695 96.5448C159.601 96.8828 159.37 97.1718 159.052 97.3485Z" fill="white"/>
<path d="M159.052 97.3485L68.0759 147.756C67.7574 147.932 67.3784 147.981 67.0219 147.892C66.6654 147.804 66.3605 147.585 66.1741 147.283L7.67034 52.3902C7.48472 52.0883 7.43299 51.729 7.52649 51.391C7.61998 51.0531 7.85108 50.764 8.16907 50.5874L99.1456 0.179838C99.464 0.00387517 99.843 -0.045168 100.2 0.043468C100.556 0.132104 100.861 0.351182 101.047 0.652639L159.551 95.5457C159.737 95.8475 159.788 96.2069 159.695 96.5448C159.601 96.8828 159.37 97.1718 159.052 97.3485ZM8.44967 51.0425C8.25887 51.1485 8.1202 51.3219 8.06411 51.5247C8.00801 51.7275 8.03905 51.9431 8.15043 52.1242L66.6542 147.017C66.766 147.198 66.949 147.33 67.1629 147.383C67.3768 147.436 67.6042 147.406 67.7953 147.301L158.772 96.8934C158.963 96.7874 159.101 96.614 159.157 96.4112C159.213 96.2084 159.182 95.9928 159.071 95.8117L100.567 0.918627C100.455 0.737744 100.272 0.606289 100.059 0.553107C99.8446 0.499924 99.6172 0.529356 99.4261 0.634945L8.44967 51.0425Z" fill="#3F3D56"/>
<path d="M66.9297 60.4925L44.3657 72.9946C44.0472 73.1706 43.6682 73.2196 43.3117 73.131C42.9552 73.0423 42.6503 72.8233 42.464 72.5218L29.2761 51.1311C29.0904 50.8292 29.0387 50.4699 29.1322 50.1319C29.2257 49.7939 29.4568 49.5049 29.7748 49.3282L52.3389 36.8261C52.6573 36.6501 53.0363 36.6011 53.3928 36.6897C53.7494 36.7784 54.0542 36.9975 54.2406 37.2989L67.4285 58.6897C67.6141 58.9915 67.6658 59.3509 67.5723 59.6888C67.4788 60.0268 67.2477 60.3158 66.9297 60.4925ZM30.0554 49.7834C29.8646 49.8894 29.7259 50.0628 29.6698 50.2655C29.6137 50.4683 29.6448 50.6839 29.7561 50.8651L42.9441 72.2558C43.0559 72.4367 43.2388 72.5681 43.4527 72.6213C43.6666 72.6745 43.894 72.6451 44.0851 72.5395L66.6492 60.0374C66.84 59.9314 66.9786 59.758 67.0347 59.5552C67.0908 59.3524 67.0598 59.1368 66.9484 58.9557L53.7605 37.5649C53.6487 37.384 53.4658 37.2526 53.2519 37.1994C53.038 37.1462 52.8105 37.1756 52.6195 37.2812L30.0554 49.7834Z" fill="#F2F2F2"/>
<path d="M62.062 66.7005L39.4979 79.2026C39.2113 79.361 38.8701 79.4051 38.5493 79.3253C38.2284 79.2456 37.954 79.0484 37.7863 78.7771L24.5984 57.3863C24.4314 57.1146 24.3848 56.7912 24.469 56.4871C24.5531 56.1829 24.7611 55.9228 25.0473 55.7638L47.6114 43.2617C47.898 43.1033 48.2391 43.0591 48.5599 43.1389C48.8808 43.2187 49.1552 43.4159 49.3229 43.6872L62.5108 65.0779C62.6779 65.3496 62.7244 65.673 62.6403 65.9772C62.5561 66.2814 62.3481 66.5415 62.062 66.7005Z" fill="#0096C7"/>
<path d="M116.524 50.568L45.9516 89.6704C45.6651 89.8291 45.3238 89.8735 45.0029 89.7937C44.6819 89.7139 44.4075 89.5165 44.2401 89.2449C44.0726 88.9733 44.0258 88.6498 44.11 88.3455C44.1942 88.0412 44.4024 87.7811 44.6889 87.6223L115.262 48.5199C115.404 48.4413 115.56 48.39 115.723 48.3688C115.886 48.3477 116.051 48.3571 116.21 48.3966C116.369 48.4362 116.519 48.505 116.649 48.5991C116.78 48.6933 116.89 48.811 116.973 48.9454C117.056 49.0799 117.11 49.2286 117.133 49.3829C117.155 49.5372 117.145 49.6942 117.103 49.8448C117.062 49.9955 116.989 50.1369 116.89 50.261C116.79 50.3851 116.666 50.4894 116.524 50.568Z" fill="#CCCCCC"/>
<path d="M103.83 67.0655L50.3007 96.7248C50.1589 96.8034 50.0021 96.8548 49.8393 96.8759C49.6765 96.8971 49.5109 96.8876 49.352 96.8481C49.031 96.7683 48.7566 96.5709 48.5892 96.2993C48.4217 96.0277 48.375 95.7042 48.4591 95.3999C48.5433 95.0956 48.7516 94.8355 49.038 94.6768L102.568 65.0175C102.71 64.9389 102.866 64.8875 103.029 64.8664C103.192 64.8452 103.358 64.8547 103.516 64.8942C103.675 64.9337 103.825 65.0025 103.955 65.0966C104.086 65.1908 104.196 65.3085 104.279 65.443C104.362 65.5774 104.416 65.7261 104.439 65.8804C104.461 66.0347 104.451 66.1917 104.409 66.3424C104.368 66.493 104.295 66.6344 104.196 66.7585C104.096 66.8826 103.972 66.9869 103.83 67.0655V67.0655Z" fill="#CCCCCC"/>
<path d="M100.29 24.759L69.0846 42.0492C68.7982 42.2079 68.4569 42.2523 68.1359 42.1725C67.8149 42.0927 67.5406 41.8952 67.3731 41.6237C67.2057 41.3521 67.1589 41.0285 67.2431 40.7243C67.3273 40.42 67.5355 40.1599 67.822 40.0011L99.0276 22.7109C99.3141 22.5522 99.6554 22.5079 99.9763 22.5877C100.135 22.6272 100.284 22.696 100.415 22.7901C100.546 22.8843 100.656 23.002 100.739 23.1365C100.822 23.2709 100.876 23.4196 100.899 23.5739C100.921 23.7282 100.911 23.8852 100.869 24.0358C100.828 24.1865 100.755 24.3279 100.656 24.452C100.556 24.5761 100.432 24.6804 100.29 24.759Z" fill="#CCCCCC"/>
<path d="M96.8518 36.1285L73.434 49.1036C73.2922 49.1822 73.1354 49.2335 72.9726 49.2547C72.8098 49.2758 72.6442 49.2664 72.4853 49.2269C72.3264 49.1874 72.1772 49.1186 72.0463 49.0244C71.9154 48.9302 71.8054 48.8126 71.7225 48.6781C71.6396 48.5436 71.5854 48.395 71.5631 48.2406C71.5408 48.0863 71.5508 47.9294 71.5924 47.7787C71.6341 47.628 71.7067 47.4866 71.806 47.3625C71.9054 47.2385 72.0295 47.1342 72.1713 47.0556L95.5891 34.0804C95.8756 33.9217 96.2169 33.8773 96.5378 33.9571C96.8588 34.0369 97.1332 34.2343 97.3006 34.5059C97.4681 34.7775 97.5149 35.101 97.4307 35.4053C97.3465 35.7096 97.1383 35.9697 96.8518 36.1285Z" fill="#CCCCCC"/>
<path d="M125.223 64.6768L54.6498 103.779C54.3633 103.938 54.0221 103.982 53.7011 103.902C53.3801 103.823 53.1057 103.625 52.9383 103.354C52.7709 103.082 52.7241 102.759 52.8083 102.454C52.8924 102.15 53.1007 101.89 53.3872 101.731L123.96 62.6287C124.246 62.47 124.588 62.4256 124.909 62.5054C125.23 62.5852 125.504 62.7827 125.671 63.0542C125.839 63.3258 125.886 63.6494 125.802 63.9536C125.717 64.2579 125.509 64.518 125.223 64.6768V64.6768Z" fill="#CCCCCC"/>
<path d="M112.529 81.1743L58.9992 110.834C58.8573 110.912 58.7006 110.964 58.5378 110.985C58.375 111.006 58.2094 110.996 58.0505 110.957C57.8915 110.917 57.7424 110.849 57.6115 110.754C57.4806 110.66 57.3706 110.543 57.2877 110.408C57.2048 110.274 57.1506 110.125 57.1283 109.971C57.106 109.816 57.1159 109.659 57.1576 109.509C57.1993 109.358 57.2719 109.217 57.3712 109.093C57.4705 108.968 57.5947 108.864 57.7365 108.786L111.266 79.1262C111.408 79.0477 111.565 78.9963 111.728 78.9752C111.89 78.954 112.056 78.9635 112.215 79.003C112.374 79.0425 112.523 79.1113 112.654 79.2054C112.785 79.2996 112.895 79.4173 112.978 79.5518C113.061 79.6862 113.115 79.8349 113.137 79.9892C113.159 80.1435 113.149 80.3005 113.108 80.4512C113.066 80.6018 112.994 80.7432 112.894 80.8673C112.795 80.9914 112.671 81.0957 112.529 81.1743V81.1743Z" fill="#CCCCCC"/>
<path d="M133.921 78.7856L63.3483 117.888C63.2065 117.967 63.0497 118.018 62.8869 118.039C62.7241 118.06 62.5585 118.051 62.3996 118.011C62.2407 117.972 62.0915 117.903 61.9606 117.809C61.8297 117.715 61.7197 117.597 61.6368 117.462C61.5539 117.328 61.4997 117.179 61.4774 117.025C61.4551 116.871 61.4651 116.714 61.5067 116.563C61.5484 116.412 61.621 116.271 61.7203 116.147C61.8197 116.023 61.9438 115.919 62.0857 115.84L132.658 76.7375C132.8 76.6589 132.957 76.6076 133.12 76.5864C133.283 76.5653 133.448 76.5747 133.607 76.6142C133.766 76.6538 133.915 76.7225 134.046 76.8167C134.177 76.9109 134.287 77.0286 134.37 77.163C134.453 77.2975 134.507 77.4462 134.529 77.6005C134.552 77.7548 134.542 77.9118 134.5 78.0624C134.458 78.2131 134.386 78.3545 134.286 78.4786C134.187 78.6027 134.063 78.707 133.921 78.7856Z" fill="#CCCCCC"/>
<path d="M138.27 85.84L67.6974 124.942C67.5556 125.021 67.3988 125.072 67.236 125.093C67.0732 125.115 66.9076 125.105 66.7487 125.066C66.5898 125.026 66.4406 124.957 66.3097 124.863C66.1789 124.769 66.0688 124.651 65.9859 124.517C65.903 124.382 65.8488 124.234 65.8265 124.079C65.8042 123.925 65.8142 123.768 65.8559 123.617C65.8975 123.467 65.9701 123.325 66.0694 123.201C66.1688 123.077 66.2929 122.973 66.4348 122.894L137.008 83.7919C137.149 83.7133 137.306 83.662 137.469 83.6408C137.632 83.6197 137.797 83.6291 137.956 83.6686C138.115 83.7081 138.264 83.777 138.395 83.8711C138.526 83.9653 138.636 84.083 138.719 84.2174C138.802 84.3519 138.856 84.5006 138.878 84.6549C138.901 84.8092 138.891 84.9662 138.849 85.1168C138.807 85.2675 138.735 85.4089 138.636 85.533C138.536 85.6571 138.412 85.7614 138.27 85.84Z" fill="#CCCCCC"/>
<path d="M115.448 113.302C116.429 112.207 117.311 111.037 118.087 109.804C118.782 108.691 119.465 107.501 119.618 106.196C119.696 105.64 119.635 105.074 119.44 104.545C119.244 104.016 118.92 103.538 118.492 103.15C118.079 102.79 117.556 102.563 116.998 102.503C116.44 102.442 115.877 102.552 115.389 102.816C114.895 103.084 114.488 103.475 114.209 103.945C113.93 104.415 113.791 104.948 113.805 105.488C113.845 106.081 114.026 106.659 114.335 107.177C114.643 107.695 115.071 108.141 115.586 108.481C117.672 109.913 120.93 109.839 123.153 108.748C125.657 107.52 126.951 104.307 124.984 102.108C124.575 101.65 123.894 102.162 123.996 102.655C124.126 103.322 124.52 103.916 125.097 104.317C125.673 104.717 126.39 104.894 127.099 104.811C127.809 104.728 128.458 104.391 128.915 103.869C129.371 103.348 129.6 102.68 129.555 102.004L128.671 102.494C129.755 102.949 130.947 103.126 132.126 103.006C133.305 102.886 134.43 102.474 135.388 101.811C135.862 101.484 136.285 101.097 136.645 100.659C137.078 100.124 137.805 99.7776 138.394 99.3919L142.637 96.6122C143.262 96.2034 142.668 95.229 142.039 95.6412L138.196 98.1587C137.555 98.5782 136.911 98.9925 136.274 99.4174C135.819 99.7211 135.539 100.211 135.125 100.572C134.341 101.24 133.373 101.684 132.333 101.851C131.294 102.017 130.225 101.901 129.253 101.514C129.162 101.468 129.061 101.444 128.958 101.446C128.855 101.448 128.755 101.474 128.666 101.524C128.577 101.573 128.503 101.643 128.451 101.727C128.399 101.811 128.371 101.906 128.369 102.004C128.415 102.407 128.292 102.812 128.026 103.13C127.759 103.448 127.371 103.653 126.945 103.701C126.52 103.749 126.092 103.635 125.754 103.385C125.417 103.135 125.197 102.769 125.143 102.366L124.155 102.913C125.425 104.332 124.579 106.508 123.117 107.46C121.482 108.525 119.066 108.71 117.223 108.048C116.77 107.9 116.355 107.666 116.003 107.36C115.651 107.053 115.369 106.681 115.175 106.267C114.995 105.892 114.944 105.474 115.028 105.071C115.113 104.667 115.328 104.299 115.645 104.018C115.92 103.761 116.289 103.615 116.675 103.611C117.06 103.607 117.433 103.746 117.713 103.997C118.018 104.292 118.242 104.654 118.365 105.051C118.488 105.448 118.506 105.867 118.418 106.272C118.228 107.399 117.57 108.438 116.959 109.4C116.261 110.497 115.472 111.539 114.599 112.516C114.109 113.066 114.954 113.857 115.448 113.302L115.448 113.302Z" fill="#0096C7"/>
<path d="M125.982 140.044C126.084 140.143 126.178 140.25 126.262 140.364L139.404 140.059L140.937 137.403L145.467 139.073L143.235 144.025C143.055 144.425 142.742 144.758 142.345 144.976C141.947 145.193 141.486 145.283 141.031 145.23L126.183 143.53C125.833 143.95 125.356 144.26 124.816 144.417C124.276 144.574 123.698 144.571 123.159 144.41C122.621 144.248 122.147 143.934 121.801 143.511C121.454 143.088 121.252 142.574 121.221 142.039C121.191 141.505 121.332 140.974 121.627 140.517C121.923 140.06 122.357 139.699 122.874 139.483C123.391 139.266 123.965 139.204 124.52 139.304C125.075 139.404 125.585 139.662 125.982 140.044Z" fill="#FFB7B7"/>
<path d="M168.821 215.704H164.5L162.445 199.903L168.822 199.903L168.821 215.704Z" fill="#FFB7B7"/>
<path d="M169.923 219.675L155.99 219.674V219.507C155.991 218.143 156.562 216.836 157.579 215.872C158.596 214.908 159.975 214.366 161.414 214.366H161.414L169.924 214.366L169.923 219.675Z" fill="#2F2E41"/>
<path d="M129.585 215.613L125.611 214.003L130.268 198.708L136.132 201.083L129.585 215.613Z" fill="#FFB7B7"/>
<path d="M128.953 219.675L116.14 214.485L116.209 214.332C116.774 213.078 117.841 212.088 119.176 211.58C120.511 211.073 122.004 211.088 123.327 211.624L123.327 211.624L131.152 214.793L128.953 219.675Z" fill="#2F2E41"/>
<path d="M147.818 143.466L147.505 148.266L156.639 149.193L166.196 150.163L163.383 142.874L147.818 143.466Z" fill="#FFB7B7"/>
<path d="M147.218 148.328L143.67 124.879L149.82 122.968L151.626 120.619L160.416 121.112L161.707 123.853L166.394 125.952L165.674 138.634L166.199 149.243L147.218 148.328Z" fill="#2F2E41"/>
<path d="M144.985 142.044L138.729 139.671L138.756 139.566C138.783 139.459 141.445 128.912 141.799 127.217C142.167 125.451 143.512 124.963 143.569 124.943L143.611 124.928L146.087 125.643L147.174 133.742L144.985 142.044Z" fill="#2F2E41"/>
<path d="M132.803 212.836L124.476 211.216L137.785 176.401L142.34 164.526C142.34 164.526 145.229 155.005 146.535 151.32L147.322 146.376L165.969 148.333C165.969 148.333 171.178 155.584 169.595 167.402L170.311 211.824L161.984 212.228L155.009 167.427L142.767 191.987C142.767 191.987 138.909 202.467 136.148 204.739L132.803 212.836Z" fill="#2F2E41"/>
<path d="M158.491 149.982C158.638 149.978 158.785 149.986 158.93 150.005L167.629 140.662L166.617 137.79L170.989 135.776L173.302 140.694C173.488 141.092 173.534 141.536 173.432 141.96C173.33 142.384 173.086 142.765 172.736 143.047L161.325 152.212C161.412 152.741 161.327 153.283 161.082 153.765C160.836 154.248 160.441 154.648 159.95 154.912C159.458 155.177 158.894 155.293 158.331 155.246C157.768 155.198 157.234 154.99 156.799 154.648C156.364 154.306 156.05 153.846 155.897 153.33C155.744 152.815 155.761 152.267 155.945 151.76C156.129 151.254 156.471 150.812 156.926 150.495C157.38 150.177 157.927 149.998 158.491 149.982Z" fill="#FFB7B7"/>
<path d="M166.935 141.571L163.306 133.479L164.722 127.842L166.246 126.016C166.358 125.97 166.479 125.948 166.6 125.949C166.722 125.95 166.841 125.975 166.952 126.022C167.515 126.237 167.994 126.894 168.376 127.977L171.777 137.16L166.935 141.571Z" fill="#2F2E41"/>
<path d="M148.107 117.621V111.52C148.107 109.352 149.016 107.273 150.633 105.74C152.25 104.206 154.444 103.345 156.731 103.345C159.018 103.345 161.211 104.206 162.828 105.74C164.446 107.273 165.354 109.352 165.354 111.52V117.621C165.354 117.912 165.232 118.191 165.015 118.397C164.797 118.603 164.503 118.719 164.196 118.719H149.266C148.959 118.719 148.664 118.603 148.447 118.397C148.23 118.191 148.108 117.912 148.107 117.621Z" fill="#2F2E41"/>
<path d="M154.959 118.577C158.451 118.577 161.281 115.894 161.281 112.583C161.281 109.273 158.451 106.59 154.959 106.59C151.467 106.59 148.636 109.273 148.636 112.583C148.636 115.894 151.467 118.577 154.959 118.577Z" fill="#FFB7B7"/>
<path d="M146.067 112.008C146.069 110.294 146.789 108.65 148.068 107.438C149.346 106.225 151.08 105.543 152.889 105.541H154.176C155.985 105.543 157.718 106.225 158.997 107.438C160.276 108.65 160.995 110.294 160.997 112.008V112.13H158.277L157.35 109.667L157.164 112.13H155.758L155.29 110.888L155.197 112.13H146.067L146.067 112.008Z" fill="#2F2E41"/>
<path d="M154.337 119.405C154.209 119.241 154.133 119.046 154.117 118.843C154.101 118.64 154.145 118.436 154.246 118.256C155.61 115.797 157.52 111.253 154.985 108.45L154.803 108.249H162.161V118.722L155.477 119.841C155.409 119.852 155.34 119.858 155.272 119.858C155.089 119.858 154.909 119.817 154.747 119.738C154.584 119.659 154.444 119.545 154.337 119.405Z" fill="#2F2E41"/>
<path d="M68.4946 212.252L72.3996 213.575L79.6411 199.926L73.8776 197.973L68.4946 212.252Z" fill="#9F616A"/>
<path d="M66.1455 215.504L67.9541 210.706L75.6446 213.312C76.9435 213.753 78.0045 214.665 78.595 215.848C79.1855 217.03 79.2571 218.386 78.7943 219.619L78.7373 219.77L66.1455 215.504Z" fill="#2F2E41"/>
<path d="M93.8883 215.914L98.0353 215.914L100.008 200.75L93.8877 200.75L93.8883 215.914Z" fill="#9F616A"/>
<path d="M92.8303 214.631L100.997 214.63H100.998C101.681 214.63 102.358 214.758 102.989 215.006C103.621 215.254 104.194 215.617 104.678 216.075C105.161 216.533 105.544 217.077 105.806 217.676C106.068 218.275 106.202 218.916 106.202 219.564V219.724L92.8306 219.725L92.8303 214.631Z" fill="#2F2E41"/>
<path d="M84.4373 119.036L86.2408 115.658C86.2408 115.658 92.9595 117.254 93.5703 120.945L84.4373 119.036Z" fill="#F1F1F1"/>
<path d="M76.9957 157.666L81.9003 183.612L68.8772 205.446L76.6573 208.332L89.8495 187.168L91.5408 181.395L92.5555 211.538L99.5721 211.336L102.789 183.19L97.6293 157.024L76.9957 157.666Z" fill="#2F2E41"/>
<path d="M86.3058 163.8C79.1005 163.8 74.5257 162.493 74.4232 162.472L74.2573 162.439L78.0103 145.943L78.1793 130.728C78.1793 124.28 82.6558 119.526 83.277 119.088C83.3816 118.696 83.575 118.331 83.8438 118.018C84.1126 117.705 84.4503 117.451 84.8332 117.274C86.3264 116.632 88.1511 117.403 88.2279 117.436L93.7046 119.383L93.7303 119.455C93.7963 119.639 101.01 142.089 101.01 142.089C101.01 142.089 100.573 161.704 100.421 162.347C100.421 162.347 90.3092 163.8 86.3058 163.8Z" fill="#3F3D56"/>
<path d="M91.8423 114.594C95.9304 114.594 99.2444 111.453 99.2444 107.577C99.2444 103.702 95.9304 100.56 91.8423 100.56C87.7542 100.56 84.4402 103.702 84.4402 107.577C84.4402 111.453 87.7542 114.594 91.8423 114.594Z" fill="#9F616A"/>
<path opacity="0.2" d="M83.5891 131.972L96.5391 149.101L98.4514 141.102L83.5891 131.972Z" fill="black"/>
<path d="M124.19 143.627C123.826 143.9 123.403 144.094 122.951 144.195C122.499 144.297 122.029 144.303 121.574 144.214C121.12 144.124 120.691 143.942 120.319 143.678C119.947 143.415 119.64 143.077 119.421 142.689L108.274 144.381L110.689 139.313L120.904 138.484C121.615 138.177 122.421 138.129 123.168 138.348C123.915 138.566 124.551 139.038 124.956 139.671C125.362 140.305 125.507 141.058 125.366 141.787C125.225 142.516 124.806 143.171 124.19 143.627H124.19Z" fill="#9F616A"/>
<path d="M111.263 139.024L115.268 138.652L116.378 143.948L111.338 144.033L111.263 139.024Z" fill="#F1F1F1"/>
<path d="M114.546 145.794L94.9311 144.138L85.0268 129.206L84.9963 129.074C84.7152 127.854 84.912 126.579 85.55 125.487C86.188 124.394 87.2235 123.56 88.4633 123.138C89.703 122.716 91.0622 122.737 92.2871 123.196C93.5119 123.655 94.5188 124.521 95.1196 125.632L100.934 136.383L112.667 138.064L114.546 145.794Z" fill="#3F3D56"/>
<path d="M85.5374 113.67L91.6812 113.879C92.0557 113.891 93.0721 110.06 93.2051 109.265C93.3103 108.748 93.6105 108.284 94.0498 107.961C94.4891 107.638 95.0373 107.478 95.5922 107.51C96.0521 107.551 97.2118 106.737 98.4085 105.772C100.68 103.941 100.562 100.502 98.0665 98.9548C97.9983 98.9126 97.9313 98.8739 97.8656 98.839C96.2912 98.0036 94.4494 97.7231 92.6452 97.7017C91.0097 97.6823 89.3278 97.8774 87.887 98.6113C85.3038 99.9269 83.9291 102.802 83.8083 105.58C83.6876 108.357 84.6269 111.073 85.6927 113.663" fill="#2F2E41"/>
<path d="M239.55 220H0.321716C0.236391 220 0.154562 219.968 0.0942281 219.911C0.0338947 219.854 0 219.776 0 219.695C0 219.614 0.0338947 219.537 0.0942281 219.479C0.154562 219.422 0.236391 219.39 0.321716 219.39H239.678C239.764 219.39 239.845 219.422 239.906 219.479C239.966 219.537 240 219.614 240 219.695C240 219.863 239.728 220 239.55 220Z" fill="#CBCBCB"/>
</g>
<defs>
<clipPath id="clip0_1111_1200">
<rect width="240" height="220" fill="white"/>
</clipPath>
</defs>
</svg>
