<svg width="380" height="270" viewBox="0 0 380 270" fill="none" xmlns="http://www.w3.org/2000/svg">
<path d="M277.274 65.7539C277.274 91.658 241.329 168.051 220.719 209.723C219.321 212.551 217.278 214.906 214.801 216.546C212.324 218.186 209.504 219.05 206.631 219.05C203.758 219.05 200.937 218.186 198.46 216.546C195.983 214.906 193.94 212.551 192.542 209.723C171.932 168.051 135.988 91.658 135.988 65.7539C135.988 29.439 167.616 0 206.631 0C245.646 0 277.274 29.439 277.274 65.7539Z" fill="#6C757D"/>
<path d="M206.962 108.345C228.21 108.345 245.435 88.9415 245.435 65.0067C245.435 41.0719 228.21 21.6689 206.962 21.6689C185.715 21.6689 168.49 41.0719 168.49 65.0067C168.49 88.9415 185.715 108.345 206.962 108.345Z" fill="white"/>
<path d="M46.42 104.219C59.1465 104.219 69.4634 92.5978 69.4634 78.2618C69.4634 63.9259 59.1465 52.3043 46.42 52.3043C33.6936 52.3043 23.3767 63.9259 23.3767 78.2618C23.3767 92.5978 33.6936 104.219 46.42 104.219Z" fill="#FF6584"/>
<path opacity="0.4" d="M41.728 101.346C42.9008 93.2045 37.9928 85.5338 30.7657 84.2127C23.5386 82.8916 16.7292 88.4203 15.5564 96.5614C14.3836 104.702 19.2916 112.373 26.5186 113.694C33.7457 115.015 40.5552 109.487 41.728 101.346Z" fill="#6C63FF"/>
<path d="M338.801 175.989C234.402 131.904 107.072 174.883 33.5572 262.799C33.1393 263.292 32.7214 263.793 32.3168 264.293H31.1958C31.5805 263.793 31.9785 263.292 32.3699 262.799C107.411 168.196 233.049 130.492 338.801 175.989Z" fill="#0096C7"/>
<path d="M367.331 190.612C358.103 185.068 348.574 180.184 338.802 175.989C348.6 180.115 358.132 185.001 367.331 190.612Z" fill="#0096C7"/>
<path opacity="0.4" d="M310.193 146.628C318.223 146.628 324.733 139.295 324.733 130.249C324.733 121.203 318.223 113.87 310.193 113.87C302.163 113.87 295.653 121.203 295.653 130.249C295.653 139.295 302.163 146.628 310.193 146.628Z" fill="#90E0EF"/>
<path d="M178.158 221.061L175.414 215.909L201.028 191.178C219.963 180.911 242.789 183.874 266.891 191.178V198.391L243.107 227.244L215.664 233.427L178.158 221.061Z" fill="#3F3D56"/>
<path d="M278.228 205.691C282.776 199.992 283.408 194.573 278.228 189.569H269.605V194.653L266.891 191.179L244.936 215.909L241.277 220.031L236.703 240.64L244.936 263.31H287.015V216.94L278.228 205.691Z" fill="#CCCCCC"/>
<path d="M175.414 215.909H244.936V263.31H175.414C167.003 253.059 171.373 234.376 175.414 215.909Z" fill="#F2F2F2"/>
<path d="M235.331 230.851H220.695V245.277H235.331V230.851Z" fill="#3F3D56"/>
<path d="M214.749 230.336H201.942V263.31H214.749V230.336Z" fill="#CCCCCC"/>
<path d="M187.306 235.488V230.336H181.818V235.488H186.848H187.306Z" fill="#3F3D56"/>
<path d="M186.848 239.609H181.818V244.762H187.306V239.609H186.848Z" fill="#3F3D56"/>
<path d="M196.454 230.336H190.965V235.488H196.454V230.336Z" fill="#3F3D56"/>
<path d="M196.454 239.61H190.965V244.762H196.454V239.61Z" fill="#3F3D56"/>
<path d="M264.604 236.003V230.851H259.115V236.003H264.146H264.604Z" fill="#3F3D56"/>
<path d="M264.146 240.125H259.115V245.277H264.604V240.125H264.146Z" fill="#3F3D56"/>
<path d="M273.751 230.851H268.262V236.003H273.751V230.851Z" fill="#3F3D56"/>
<path d="M273.751 240.125H268.262V245.277H273.751V240.125Z" fill="#3F3D56"/>
<path d="M54.3692 134.504L49.7957 130.382L75.4089 104.62H140.357V127.291L98.278 159.235L54.3692 134.504Z" fill="#3F3D56"/>
<path d="M152.198 119.071V105.135H143.575V108.548L140.357 104.62L119.317 130.382L111.085 136.565L98.3191 241.624L117.57 263.31H162.311C169.166 224.464 174.602 184.559 162.311 131.412L152.198 119.071Z" fill="#CCCCCC"/>
<path d="M49.7953 130.382H119.317V263.31H49.7953C42.1876 211.668 38.4722 163.778 49.7953 130.382Z" fill="#F2F2F2"/>
<path d="M89.5874 230.851H76.7808V263.31H89.5874V230.851Z" fill="#CCCCCC"/>
<path d="M63.0593 240.125V234.973H57.571V240.125H62.6023H63.0593Z" fill="#3F3D56"/>
<path d="M62.6023 244.247H57.571V249.399H63.0593V244.247H62.6023Z" fill="#3F3D56"/>
<path d="M72.2071 234.973H66.7185V240.125H72.2071V234.973Z" fill="#3F3D56"/>
<path d="M100.107 244.247H95.0762V249.399H100.564V244.247H100.107Z" fill="#3F3D56"/>
<path d="M109.712 234.973H104.224V240.125H109.712V234.973Z" fill="#3F3D56"/>
<path d="M109.712 244.247H104.224V249.399H109.712V244.247Z" fill="#3F3D56"/>
<path d="M138.984 137.08V131.928H133.496V137.08H138.527H138.984Z" fill="#3F3D56"/>
<path d="M138.527 141.202H133.496V146.354H138.984V141.202H138.527Z" fill="#3F3D56"/>
<path d="M148.132 131.927H142.644V137.08H148.132V131.927Z" fill="#3F3D56"/>
<path d="M148.132 141.202H142.644V146.354H148.132V141.202Z" fill="#3F3D56"/>
<path d="M138.984 165.933V160.78H133.496V165.933H138.527H138.984Z" fill="#3F3D56"/>
<path d="M138.527 170.055H133.496V175.207H138.984V170.055H138.527Z" fill="#3F3D56"/>
<path d="M148.132 160.78H142.644V165.932H148.132V160.78Z" fill="#3F3D56"/>
<path d="M148.132 170.054H142.644V175.206H148.132V170.054Z" fill="#3F3D56"/>
<path d="M138.984 194.786V189.633H133.496V194.786H138.527H138.984Z" fill="#3F3D56"/>
<path d="M138.527 198.907H133.496V204.059H138.984V198.907H138.527Z" fill="#3F3D56"/>
<path d="M148.132 189.633H142.644V194.785H148.132V189.633Z" fill="#3F3D56"/>
<path d="M148.132 198.907H142.644V204.059H148.132V198.907Z" fill="#3F3D56"/>
<path d="M138.984 223.638V218.485H133.496V223.638H138.527H138.984Z" fill="#3F3D56"/>
<path d="M138.527 227.76H133.496V232.912H138.984V227.76H138.527Z" fill="#3F3D56"/>
<path d="M148.132 218.485H142.644V223.638H148.132V218.485Z" fill="#3F3D56"/>
<path d="M148.132 227.759H142.644V232.912H148.132V227.759Z" fill="#3F3D56"/>
<path d="M57.5708 137.08H110.627V149.445C93.6208 144.158 75.8867 144.537 57.5708 149.445V137.08Z" fill="#3F3D56"/>
<path d="M57.5708 161.811C74.1302 167.306 91.8156 167.306 110.627 161.811V174.176H57.5708V161.811Z" fill="#3F3D56"/>
<path d="M57.5708 186.541H110.627V198.907C92.5456 192.403 74.8415 192.096 57.5708 198.907V186.541Z" fill="#3F3D56"/>
<path d="M57.5708 211.272C74.8741 218.784 92.5754 218.472 110.627 211.272V223.638H57.5708V211.272Z" fill="#3F3D56"/>
<path d="M92.0632 76.2148H99.9473C107.723 76.2148 115.181 79.6944 120.679 85.8883C126.178 92.0822 129.267 100.483 129.267 109.242H92.0632V76.2148Z" fill="#3F3D56"/>
<path d="M218.093 159.154H225.977C233.753 159.154 241.211 162.634 246.709 168.828C252.208 175.022 255.297 183.422 255.297 192.182H218.093V159.154Z" fill="#3F3D56"/>
<path d="M324.772 263.186H13.1887V264.038H324.772V263.186Z" fill="#ADB5BD"/>
<path d="M36.7815 203.766H35.4548V262.795H36.7815V203.766Z" fill="#56AB91"/>
<path d="M49.0247 211.289C49.1091 231.93 36.2175 248.73 36.2175 248.73C36.2175 248.73 19.708 231.707 23.1044 211.424C26.5202 191.024 37.1661 174.069 35.9116 173.982C35.9116 173.982 48.9402 190.648 49.0247 211.289Z" fill="#56AB91"/>
<path d="M169.444 203.766H168.118V262.795H169.444V203.766Z" fill="#56AB91"/>
<path d="M181.688 211.289C182.884 231.886 168.881 248.73 168.881 248.73C168.881 248.73 155.852 232.065 155.768 211.424C155.683 190.783 168.575 173.982 168.575 173.982C167.318 179.64 180.72 194.623 181.688 211.289Z" fill="#56AB91"/>
<path d="M83.2546 107.813L140.879 104.638L165.053 127.367L160.779 131.713L122.5 130.743L83.2546 107.813Z" fill="#3F3D56"/>
<path d="M209.284 193.742L266.909 190.566L291.082 213.295L286.809 217.642L248.529 216.671L209.284 193.742Z" fill="#3F3D56"/>
</svg>
