<svg width="170" height="160" viewBox="0 0 170 160" fill="none" xmlns="http://www.w3.org/2000/svg">
<g clip-path="url(#clip0_953_839)">
<path d="M164.06 159.906H101.853C98.5774 159.906 95.9126 156.754 95.9126 152.881V7.02466C95.9126 3.15132 98.5774 0 101.853 0H164.06C167.335 0 170 3.15132 170 7.02466V152.881C170 156.754 167.335 159.906 164.06 159.906ZM101.853 0.712274C98.9048 0.712274 96.5149 3.53835 96.5149 7.02449V152.881C96.5149 156.367 98.9049 159.193 101.853 159.193H164.06C167.008 159.193 169.398 156.367 169.398 152.881V53.6716C169.398 24.423 149.347 0.712274 124.613 0.712274H101.853Z" fill="#E6E6E6"/>
<path d="M113.581 71.9817C117.573 71.9817 120.809 68.155 120.809 63.4345C120.809 58.7139 117.573 54.8872 113.581 54.8872C109.589 54.8872 106.353 58.7139 106.353 63.4345C106.353 68.155 109.589 71.9817 113.581 71.9817Z" fill="#F2F2F2"/>
<path d="M152.332 71.9817C156.324 71.9817 159.56 68.155 159.56 63.4345C159.56 58.7139 156.324 54.8872 152.332 54.8872C148.34 54.8872 145.104 58.7139 145.104 63.4345C145.104 68.155 148.34 71.9817 152.332 71.9817Z" fill="#F2F2F2"/>
<path d="M132.956 71.9817C136.948 71.9817 140.184 68.155 140.184 63.4345C140.184 58.7139 136.948 54.8872 132.956 54.8872C128.964 54.8872 125.728 58.7139 125.728 63.4345C125.728 68.155 128.964 71.9817 132.956 71.9817Z" fill="#F2F2F2"/>
<path d="M113.581 96.5552C117.573 96.5552 120.809 92.7285 120.809 88.0079C120.809 83.2874 117.573 79.4606 113.581 79.4606C109.589 79.4606 106.353 83.2874 106.353 88.0079C106.353 92.7285 109.589 96.5552 113.581 96.5552Z" fill="#E6E6E6"/>
<path d="M152.331 96.5552C156.323 96.5552 159.559 92.7285 159.559 88.0079C159.559 83.2874 156.323 79.4606 152.331 79.4606C148.339 79.4606 145.103 83.2874 145.103 88.0079C145.103 92.7285 148.339 96.5552 152.331 96.5552Z" fill="#E6E6E6"/>
<path d="M132.956 96.5552C136.948 96.5552 140.184 92.7285 140.184 88.0079C140.184 83.2874 136.948 79.4606 132.956 79.4606C128.964 79.4606 125.728 83.2874 125.728 88.0079C125.728 92.7285 128.964 96.5552 132.956 96.5552Z" fill="#E6E6E6"/>
<path d="M113.581 121.129C117.573 121.129 120.809 117.302 120.809 112.581C120.809 107.861 117.573 104.034 113.581 104.034C109.589 104.034 106.353 107.861 106.353 112.581C106.353 117.302 109.589 121.129 113.581 121.129Z" fill="#E6E6E6"/>
<path d="M152.184 145.66C156.176 145.66 159.412 141.833 159.412 137.113C159.412 132.392 156.176 128.565 152.184 128.565C148.192 128.565 144.956 132.392 144.956 137.113C144.956 141.833 148.192 145.66 152.184 145.66Z" fill="#E6E6E6"/>
<path d="M123.422 145.66C132.82 145.66 140.438 141.833 140.438 137.113C140.438 132.392 132.82 128.565 123.422 128.565C114.024 128.565 106.406 132.392 106.406 137.113C106.406 141.833 114.024 145.66 123.422 145.66Z" fill="#E6E6E6"/>
<path d="M152.331 121.129C156.323 121.129 159.559 117.302 159.559 112.581C159.559 107.861 156.323 104.034 152.331 104.034C148.339 104.034 145.103 107.861 145.103 112.581C145.103 117.302 148.339 121.129 152.331 121.129Z" fill="#E6E6E6"/>
<path d="M132.956 121.129C136.948 121.129 140.184 117.302 140.184 112.581C140.184 107.861 136.948 104.034 132.956 104.034C128.964 104.034 125.728 107.861 125.728 112.581C125.728 117.302 128.964 121.129 132.956 121.129Z" fill="#0096C7"/>
<path d="M134.377 9.97184H65.2483C63.1985 9.97184 61.5317 11.9428 61.5317 14.3667V44.3959C61.5317 46.8198 63.1985 48.7908 65.2483 48.7908H134.377C136.426 48.7908 138.093 46.8198 138.093 44.3959V14.3667C138.093 11.9428 136.426 9.97184 134.377 9.97184Z" fill="white"/>
<path d="M134.377 9.97184H65.2483C63.1985 9.97184 61.5317 11.9428 61.5317 14.3667V44.3959C61.5317 46.8198 63.1985 48.7908 65.2483 48.7908H134.377C136.426 48.7908 138.093 46.8198 138.093 44.3959V14.3667C138.093 11.9428 136.426 9.97184 134.377 9.97184ZM137.702 44.3959C137.702 46.5656 136.211 48.3286 134.377 48.3286H65.2483C63.4135 48.3286 61.9225 46.5656 61.9225 44.3959V14.3667C61.9225 12.197 63.4135 10.434 65.2483 10.434H134.377C136.211 10.434 137.702 12.197 137.702 14.3667V44.3959Z" fill="#3F3D56"/>
<path d="M130.532 28.1348H69.0932C68.511 28.1348 68.0391 28.6929 68.0391 29.3813C68.0391 30.0697 68.511 30.6278 69.0932 30.6278H130.532C131.114 30.6278 131.586 30.0697 131.586 29.3813C131.586 28.6929 131.114 28.1348 130.532 28.1348Z" fill="#0096C7"/>
<path d="M20.4651 64.2547L19.8494 68.5906L25.3098 84.2976L28.2394 82.5165L25.3879 67.818L24.9781 62.2085L20.4651 64.2547Z" fill="#A0616A"/>
<path d="M26.4927 39.8619C26.4927 39.8619 23.6339 38.2242 21.4155 43.7576C19.1971 49.291 19.4718 61.4271 19.4718 61.4271C19.4718 61.4271 18.664 62.3367 19.1768 62.9735C19.6896 63.6103 20.1676 64.6209 19.6445 65.7858C19.3688 66.3998 18.7308 67.601 19.7756 67.9422C20.8205 68.2834 25.708 66.6715 25.708 66.6715C25.708 66.6715 27.5356 65.7033 26.4972 65.0513C25.4588 64.3993 26.9213 60.4552 26.9213 60.4552L28.1297 49.0619L26.4927 39.8619Z" fill="#0096C7"/>
<path d="M28.7374 90.2986C29.8849 89.8819 30.334 87.6915 29.7406 85.4061C29.1471 83.1207 27.7357 81.6058 26.5882 82.0225C25.4407 82.4392 24.9916 84.6297 25.5851 86.915C26.1786 89.2004 27.5899 90.7153 28.7374 90.2986Z" fill="#A0616A"/>
<path d="M55.7999 157.616L58.5364 156.747L57.0059 143.852L52.967 145.134L55.7999 157.616Z" fill="#A0616A"/>
<path d="M65.1592 154.567C65.2829 154.71 65.4521 155.243 65.4969 155.441C65.6345 156.047 65.3303 156.671 64.8173 156.834L56.3425 159.523C55.9925 159.634 55.6327 159.388 55.5388 158.974L55.4442 158.557C55.4442 158.557 54.7404 157.436 55.2528 155.617C55.2528 155.617 56.6002 156.487 57.7731 154.082L58.016 152.92L62.1093 154.793L64.0686 154.468C64.4972 154.396 64.8493 154.21 65.1592 154.567H65.1592Z" fill="#2F2E41"/>
<path d="M28.9759 157.541L31.8093 157.541L33.1571 144.617L28.9753 144.618L28.9759 157.541Z" fill="#A0616A"/>
<path d="M38.6835 157.465C38.7717 157.641 38.8183 158.208 38.8183 158.412C38.8183 159.04 38.3877 159.549 37.8566 159.549H29.082C28.7197 159.549 28.426 159.202 28.426 158.774V158.342C28.426 158.342 27.9919 157.043 28.8856 155.443C28.8856 155.443 29.9963 156.696 31.656 154.733L32.1454 153.685L35.6882 156.749L37.652 157.035C38.0816 157.097 38.4625 157.025 38.6835 157.465Z" fill="#2F2E41"/>
<path d="M47.8326 80.56L55.2831 118.536L58.8799 149.22L53.2278 150.131L37.5561 97.8769L33.9593 150.131L27.5364 150.739C27.5364 150.739 22.3981 88.7627 24.7103 81.1676L47.8326 80.56Z" fill="#2F2E41"/>
<path d="M56.7009 35.6545L59.2716 32.4782L62.2237 15.8584L58.9541 15.3836L54.3239 29.4349L51.9958 34.3463L56.7009 35.6545Z" fill="#A0616A"/>
<path d="M40.1189 51.8198C40.1189 51.8198 42.5247 57.0655 46.9901 53.9643C51.4555 50.8631 56.1782 38.6533 56.1782 38.6533C56.1782 38.6533 57.1212 35.5495 58.1076 34.9339C58.6275 34.6094 59.9653 34.2595 59.2635 33.2827C58.5616 32.3058 53.5142 30.1703 53.5142 30.1703C53.5142 30.1703 51.5425 29.7559 52.0913 30.9855C52.6401 32.215 50.8378 31.4534 51.0197 32.7547C51.2017 34.056 49.5554 34.5044 49.5554 34.5044L40.1189 51.8198H40.1189Z" fill="#0096C7"/>
<path d="M63.2405 13.5107C63.8363 11.2262 63.3894 9.0351 62.2423 8.61679C61.0952 8.19849 59.6823 9.71138 59.0866 11.9959C58.4908 14.2805 58.9377 16.4716 60.0848 16.8899C61.2319 17.3082 62.6448 15.7953 63.2405 13.5107Z" fill="#A0616A"/>
<path d="M40.4383 33.6455H33.4041L33.1195 36.2681C33.1195 36.2681 24.2481 39.153 24.4699 40.7266C24.6917 42.3002 26.0224 68.5264 26.0224 68.5264L24.9135 81.6396C24.9135 81.6396 44.874 91.6055 47.979 79.8037L46.4265 66.1661C46.4265 66.1661 50.1968 42.8247 49.3097 41.7757C48.4225 40.7266 41.1037 36.5304 41.1037 36.5304L40.4383 33.6455Z" fill="#0096C7"/>
<path d="M36.3523 33.6782C39.8392 33.6782 42.666 30.3355 42.666 26.2121C42.666 22.0887 39.8392 18.7461 36.3523 18.7461C32.8653 18.7461 30.0386 22.0887 30.0386 26.2121C30.0386 30.3355 32.8653 33.6782 36.3523 33.6782Z" fill="#A0616A"/>
<path d="M41.0282 23.141C41.8349 23.0603 42.6416 22.9797 43.4483 22.8991C43.171 22.7487 42.8822 22.5877 42.6974 22.3006C42.5127 22.0136 42.4745 21.56 42.6977 21.314C42.9585 21.0266 43.3904 21.1789 43.6754 21.4321C43.5185 20.4631 43.0294 19.5752 42.3432 19.0139C41.505 18.3282 39.4315 19.1458 38.421 18.9884C37.2551 18.8068 37.1096 17.6313 35.9437 17.4497C35.5042 17.3813 35.0097 17.3296 34.6641 17.6579C34.2808 18.022 34.2378 18.7104 33.8997 19.1323C33.4169 19.7348 32.5894 19.5571 31.9023 19.7266C30.9291 19.9667 30.1956 20.9758 29.8567 22.081C29.5179 23.1862 29.5054 24.3883 29.4968 25.5638C29.4871 26.8813 29.4836 28.4065 30.2894 29.3164C30.7803 29.8707 32.1176 31.7727 32.2621 32.557C32.3648 33.114 36.5489 33.7924 37.4557 33.7616L40.5466 32.557C40.8504 30.9753 40.3479 27.8462 39.6257 26.4673C39.8635 26.8388 40.9634 27.9571 41.1315 27.5357C41.2996 27.1143 41.2234 25.7936 41.4327 25.3989C41.6969 24.9007 40.5327 23.1905 41.0282 23.141V23.141Z" fill="#2F2E41"/>
</g>
<defs>
<clipPath id="clip0_953_839">
<rect width="170" height="160" fill="white"/>
</clipPath>
</defs>
</svg>
