<svg width="400" height="295" viewBox="0 0 400 295" fill="none" xmlns="http://www.w3.org/2000/svg">
<g clip-path="url(#clip0_1619_1850)">
<path d="M194.825 33.839C204.169 33.839 211.744 26.2641 211.744 16.9199C211.744 7.57578 204.169 0.000854492 194.825 0.000854492C185.481 0.000854492 177.906 7.57578 177.906 16.9199C177.906 26.2641 185.481 33.839 194.825 33.839Z" fill="#FF6884"/>
<path d="M178.117 124.211L158.998 124.475L151.333 39.0076C151.147 36.9332 151.817 34.8357 153.172 33.2533L171.971 11.2901C174.603 8.21585 179.078 7.66117 182.38 10.0011L205.926 26.6839C207.847 28.0449 209.038 30.1728 209.192 32.522L213.425 96.9165L224.075 109.522L224.097 109.549L226.822 123.539L178.117 124.211Z" fill="#E6E6E6"/>
<path d="M174.112 31.1628L173.805 27.196C173.723 26.1489 174.509 25.2309 175.556 25.1496L181.13 24.7171C182.177 24.6358 183.095 25.4216 183.176 26.4687L183.484 30.4355C183.565 31.4826 182.779 32.4006 181.732 32.4819L176.159 32.9144C175.112 32.9957 174.194 32.2099 174.112 31.1628V31.1628Z" fill="#00B0FF"/>
<path d="M164.721 62.8686L163.582 48.1917C163.501 47.1446 164.286 46.2266 165.334 46.1453L173.585 45.505C174.632 45.4237 175.55 46.2095 175.631 47.2566L176.77 61.9335C176.851 62.9806 176.065 63.8986 175.018 63.9798L166.767 64.6202C165.72 64.7014 164.802 63.9157 164.721 62.8686V62.8686Z" fill="#3F3D56"/>
<path d="M186.038 95.7766C185.038 95.8187 184.171 95.0719 184.064 94.0766L182.546 79.9232C182.482 79.319 182.7 78.7359 183.146 78.3228C183.591 77.9099 184.19 77.7372 184.787 77.8471L185.213 77.9261C186.06 78.0832 186.698 78.7926 186.765 79.6515L187.857 93.7263C187.898 94.2461 187.729 94.7474 187.383 95.1375C187.053 95.5104 186.602 95.734 186.108 95.7723C186.085 95.7741 186.062 95.7756 186.038 95.7766Z" fill="#3F3D56"/>
<path d="M168.574 95.1627L167.432 80.4432C167.351 79.4041 168.1 78.5071 169.137 78.4008L176.622 77.6361C177.661 77.541 178.598 78.2889 178.71 79.3286L180.298 94.1974C180.353 94.7137 180.201 95.2179 179.869 95.6172C179.537 96.0165 179.069 96.2585 178.552 96.2987L170.62 96.9142C169.573 96.9955 168.655 96.2097 168.574 95.1627V95.1627Z" fill="#3F3D56"/>
<path d="M213.68 101.781L220.368 111.774L221.955 123.473L226.658 123.407L223.971 109.609L213.293 96.9695C212.578 98.5315 212.724 100.353 213.68 101.781Z" fill="#CCCCCC"/>
<path d="M221.506 120.125L202.449 121.866L202.474 122.133L221.53 120.392L221.506 120.125Z" fill="#3F3D56"/>
<path d="M220.167 117.851L202.09 119.396L202.113 119.664L220.19 118.119L220.167 117.851Z" fill="#3F3D56"/>
<path d="M219.039 115.509L201.764 117.19L201.79 117.457L219.065 115.777L219.039 115.509Z" fill="#3F3D56"/>
<path d="M218.317 113.15L201.744 114.991L201.774 115.258L218.346 113.417L218.317 113.15Z" fill="#3F3D56"/>
<path d="M217.346 111.074L201.426 112.874L201.456 113.141L217.376 111.341L217.346 111.074Z" fill="#3F3D56"/>
<path d="M216.135 109.275L200.586 110.481L200.607 110.749L216.155 109.542L216.135 109.275Z" fill="#3F3D56"/>
<path d="M215.183 107.458L200.086 108.808L200.11 109.075L215.207 107.726L215.183 107.458Z" fill="#3F3D56"/>
<path d="M214.231 105.648L199.627 107.271L199.657 107.538L214.261 105.915L214.231 105.648Z" fill="#3F3D56"/>
<path d="M213.554 103.825L199.115 105.201L199.141 105.469L213.58 104.092L213.554 103.825Z" fill="#3F3D56"/>
<path d="M212.338 102.054L198.527 103.561L198.556 103.828L212.367 102.321L212.338 102.054Z" fill="#3F3D56"/>
<path d="M211.679 100.462L197.967 101.661L197.99 101.929L211.702 100.73L211.679 100.462Z" fill="#3F3D56"/>
<path d="M196.524 96.0912L195.115 77.9335C195.034 76.8863 195.82 75.9683 196.867 75.8871L205.653 75.2052C206.7 75.1239 207.618 75.9097 207.699 76.9569L209.109 95.1146C209.19 96.1616 208.404 97.0796 207.357 97.1608L198.571 97.8427C197.524 97.924 196.606 97.1382 196.524 96.0912Z" fill="#00B0FF"/>
<path d="M178.117 124.211L162.487 124.428L162.361 124.429L161.426 112.392C161.308 110.87 162.451 109.535 163.973 109.417L179.336 108.225C180.858 108.106 182.193 109.249 182.311 110.771L183.323 123.808L183.189 123.818L178.117 124.211Z" fill="#CCCCCC"/>
<path d="M195.04 63.0747L193.963 49.2009C193.882 48.1538 194.667 47.2358 195.714 47.1545L198.61 46.9298C199.657 46.8485 200.575 47.6343 200.657 48.6814L201.733 62.5552C201.815 63.6021 201.029 64.5201 199.982 64.6014L197.086 64.8261C196.039 64.9074 195.121 64.1216 195.04 63.0747V63.0747Z" fill="#3F3D56"/>
<path d="M202.705 123.65L200.987 111.932L197.705 100.873L196.797 97.8458C195.348 97.0172 193.577 98.2014 193.789 99.8563L193.956 101.164L197.239 112.222L198.956 123.941" fill="#CCCCCC"/>
<path d="M111.115 125.101L91.9964 125.365L84.3313 39.8977C84.1453 37.8232 84.8154 35.7258 86.1698 34.1434L104.97 12.1802C107.601 9.10553 112.076 8.55137 115.378 10.8911L138.924 27.574C140.845 28.935 142.036 31.0629 142.19 33.412L146.423 97.8066L157.073 110.412L157.095 110.439L159.82 124.429L111.115 125.101Z" fill="#E6E6E6"/>
<path d="M107.111 32.053L106.803 28.0861C106.721 27.039 107.507 26.121 108.554 26.0398L114.128 25.6072C115.175 25.526 116.093 26.3117 116.174 27.3588L116.482 31.3257C116.563 32.3728 115.777 33.2908 114.73 33.372L109.157 33.8046C108.11 33.8858 107.192 33.1 107.111 32.053Z" fill="#00B0FF"/>
<path d="M97.719 63.7587L96.58 49.0817C96.4987 48.0347 97.2845 47.1167 98.3317 47.0354L106.583 46.3951C107.63 46.3138 108.548 47.0996 108.629 48.1467L109.768 62.8236C109.849 63.8707 109.063 64.7887 108.016 64.8699L99.7655 65.5102C98.7183 65.5915 97.8003 64.8057 97.719 63.7587V63.7587Z" fill="#3F3D56"/>
<path d="M116.325 79.41C115.942 79.7645 115.755 80.2657 115.81 80.7846L117.328 94.9381C117.42 95.793 118.165 96.4344 119.024 96.3983C119.476 96.3814 119.882 96.1844 120.179 95.8493C120.476 95.5143 120.621 95.0838 120.586 94.6372L119.494 80.5624C119.437 79.8245 118.889 79.2152 118.161 79.0805L117.735 79.0015C117.591 78.9748 117.447 78.9673 117.305 78.9783C116.943 79.0063 116.6 79.155 116.325 79.41Z" fill="#3F3D56"/>
<path d="M93.6942 98.0986C93.2922 97.7665 93.0485 97.2972 93.0082 96.7774L91.9159 82.7026C91.8492 81.8437 92.3704 81.0444 93.1831 80.7585L93.5918 80.6147C94.1644 80.414 94.7828 80.4923 95.2869 80.8314C95.7912 81.1708 96.0969 81.7134 96.1261 82.3201L96.8097 96.5384C96.8578 97.5382 96.1166 98.4099 95.1218 98.5226C95.0988 98.5251 95.0756 98.5272 95.0526 98.529C94.5586 98.5673 94.0786 98.4157 93.6942 98.0986H93.6942Z" fill="#3F3D56"/>
<path d="M146.678 102.671L153.366 112.664L154.953 124.364L159.656 124.298L156.969 110.499L146.291 97.8596C145.576 99.4216 145.722 101.243 146.678 102.671H146.678Z" fill="#CCCCCC"/>
<path d="M154.504 121.015L135.447 122.756L135.472 123.023L154.528 121.282L154.504 121.015Z" fill="#3F3D56"/>
<path d="M153.163 118.741L135.086 120.286L135.109 120.554L153.186 119.009L153.163 118.741Z" fill="#3F3D56"/>
<path d="M152.037 116.4L134.762 118.08L134.788 118.348L152.063 116.667L152.037 116.4Z" fill="#3F3D56"/>
<path d="M151.313 114.04L134.74 115.881L134.77 116.148L151.343 114.307L151.313 114.04Z" fill="#3F3D56"/>
<path d="M150.344 111.964L134.424 113.764L134.454 114.031L150.374 112.231L150.344 111.964Z" fill="#3F3D56"/>
<path d="M149.133 110.165L133.584 111.371L133.605 111.639L149.153 110.432L149.133 110.165Z" fill="#3F3D56"/>
<path d="M148.181 108.348L133.084 109.698L133.108 109.966L148.205 108.616L148.181 108.348Z" fill="#3F3D56"/>
<path d="M147.229 106.538L132.625 108.161L132.655 108.428L147.259 106.805L147.229 106.538Z" fill="#3F3D56"/>
<path d="M146.552 104.715L132.113 106.091L132.139 106.359L146.578 104.982L146.552 104.715Z" fill="#3F3D56"/>
<path d="M145.334 102.944L131.523 104.451L131.553 104.718L145.363 103.211L145.334 102.944Z" fill="#3F3D56"/>
<path d="M144.675 101.352L130.963 102.551L130.986 102.819L144.698 101.62L144.675 101.352Z" fill="#3F3D56"/>
<path d="M129.522 96.9813L128.113 78.8236C128.032 77.7764 128.818 76.8584 129.865 76.7772L138.651 76.0953C139.698 76.014 140.616 76.7998 140.698 77.847L142.107 96.0047C142.188 97.0516 141.402 97.9696 140.355 98.0509L131.569 98.7328C130.522 98.814 129.604 98.0283 129.522 96.9813Z" fill="#00B0FF"/>
<path d="M111.115 125.101L95.4845 125.318L95.3586 125.319L94.4244 113.282C94.3063 111.76 95.4488 110.425 96.9711 110.307L112.334 109.115C113.856 108.997 115.191 110.139 115.309 111.661L116.321 124.698L116.187 124.708L111.115 125.101Z" fill="#CCCCCC"/>
<path d="M128.038 63.9646L126.961 50.091C126.88 49.0439 127.665 48.1259 128.712 48.0446L131.608 47.8199C132.656 47.7386 133.573 48.5244 133.655 49.5715L134.731 63.4451C134.813 64.4922 134.027 65.4102 132.98 65.4915L130.084 65.7162C129.037 65.7975 128.119 65.0117 128.038 63.9646V63.9646Z" fill="#3F3D56"/>
<path d="M135.701 124.54L133.983 112.822L130.701 101.763L129.793 98.7359C128.345 97.9073 126.573 99.0915 126.785 100.746L126.952 102.054L130.235 113.113L131.953 124.831" fill="#CCCCCC"/>
<path d="M44.1109 125.991L24.9925 126.255L17.3274 40.7878C17.1414 38.7134 17.8115 36.6159 19.1659 35.0335L37.9657 13.0703C40.5973 9.99577 45.0722 9.44159 48.3741 11.7813L71.9205 28.4641C73.8415 29.8251 75.0317 31.953 75.1862 34.3022L79.4192 98.6967L90.0689 111.302L90.0912 111.329L92.8158 125.319L44.1109 125.991L44.1109 125.991Z" fill="#E6E6E6"/>
<path d="M40.1066 32.943L39.7987 28.9762C39.7175 27.9291 40.5033 27.0111 41.5505 26.9298L47.1238 26.4973C48.1708 26.416 49.0888 27.2018 49.1701 28.2489L49.4779 32.2158C49.5592 33.2628 48.7734 34.1808 47.7264 34.2621L42.1531 34.6946C41.1059 34.7759 40.1879 33.9901 40.1066 32.943Z" fill="#00B0FF"/>
<path d="M30.7151 64.6487L29.5761 49.9718C29.4948 48.9247 30.2806 48.0067 31.3278 47.9255L39.5787 47.2851C40.6256 47.2039 41.5436 47.9897 41.6249 49.0367L42.764 63.7137C42.8452 64.7607 42.0594 65.6787 41.0125 65.76L32.7616 66.4003C31.7144 66.4816 30.7964 65.6958 30.7151 64.6487V64.6487Z" fill="#3F3D56"/>
<path d="M26.2243 81.7753L26.6329 81.6316C27.7507 81.2387 28.9315 82.0333 28.9884 83.2168L29.6721 97.4351C29.7169 98.3672 29.0304 99.1741 28.1031 99.2792C27.1072 99.3921 26.2162 98.6564 26.1387 97.6571L25.0464 83.5824C24.9843 82.7828 25.4676 82.0413 26.2243 81.7753V81.7753V81.7753Z" fill="#3F3D56"/>
<path d="M34.5682 96.943L33.4259 82.2234C33.3452 81.1843 34.0942 80.2873 35.1313 80.181L42.6163 79.4163C43.6599 79.3185 44.5928 80.0691 44.7039 81.1088L46.2924 95.9776C46.3475 96.4939 46.1951 96.9981 45.8631 97.3974C45.5314 97.7967 45.0635 98.0387 44.5458 98.0789L36.6147 98.6944C35.5675 98.7757 34.6495 97.9899 34.5682 96.943H34.5682Z" fill="#3F3D56"/>
<path d="M79.6756 103.561L86.3644 113.554L87.9511 125.254L92.6545 125.188L89.9674 111.389L79.2894 98.7496C78.5737 100.312 78.7199 102.133 79.6756 103.561H79.6756Z" fill="#CCCCCC"/>
<path d="M87.502 121.905L68.4453 123.646L68.4698 123.914L87.5264 122.172L87.502 121.905Z" fill="#3F3D56"/>
<path d="M86.1609 119.632L68.084 121.177L68.1069 121.444L86.1838 119.899L86.1609 119.632Z" fill="#3F3D56"/>
<path d="M85.0355 117.29L67.7598 118.97L67.7858 119.238L85.0615 117.557L85.0355 117.29Z" fill="#3F3D56"/>
<path d="M84.311 114.93L67.7383 116.771L67.768 117.038L84.3407 115.197L84.311 114.93Z" fill="#3F3D56"/>
<path d="M83.3423 112.854L67.4219 114.654L67.4521 114.921L83.3724 113.121L83.3423 112.854Z" fill="#3F3D56"/>
<path d="M82.1288 111.055L66.5801 112.261L66.6009 112.529L82.1495 111.323L82.1288 111.055Z" fill="#3F3D56"/>
<path d="M81.1792 109.238L66.082 110.588L66.1059 110.856L81.2031 109.506L81.1792 109.238Z" fill="#3F3D56"/>
<path d="M80.2275 107.428L65.623 109.051L65.6527 109.318L80.2572 107.695L80.2275 107.428Z" fill="#3F3D56"/>
<path d="M79.5485 105.605L65.1094 106.981L65.1349 107.249L79.574 105.873L79.5485 105.605Z" fill="#3F3D56"/>
<path d="M78.3323 103.834L64.5215 105.341L64.5506 105.608L78.3615 104.101L78.3323 103.834Z" fill="#3F3D56"/>
<path d="M77.6728 102.242L63.9609 103.441L63.9843 103.709L77.6962 102.51L77.6728 102.242Z" fill="#3F3D56"/>
<path d="M62.5204 97.8714L61.1112 79.7137C61.03 78.6665 61.8157 77.7485 62.863 77.6672L71.6493 76.9853C72.6963 76.9041 73.6143 77.6899 73.6956 78.7371L75.1047 96.8948C75.186 97.9417 74.4002 98.8597 73.3533 98.941L64.5669 99.6229C63.5197 99.7041 62.6017 98.9183 62.5204 97.8714H62.5204Z" fill="#00B0FF"/>
<path d="M44.1111 125.992L28.4806 126.208L28.3547 126.21L27.4205 114.172C27.3024 112.65 28.4448 111.315 29.9672 111.197L45.3302 110.005C46.8525 109.887 48.187 111.029 48.3051 112.551L49.3169 125.588L49.183 125.598L44.1111 125.992Z" fill="#CCCCCC"/>
<path d="M61.0356 64.8547L59.9589 50.981C59.8776 49.934 60.6634 49.0159 61.7106 48.9347L64.6065 48.7099C65.6534 48.6287 66.5714 49.4145 66.6527 50.4615L67.7294 64.3352C67.8107 65.3823 67.0249 66.3003 65.9779 66.3815L63.0821 66.6063C62.0349 66.6875 61.1169 65.9018 61.0356 64.8547V64.8547Z" fill="#3F3D56"/>
<path d="M68.6991 125.43L66.9815 113.712L63.699 102.653L62.7907 99.626C61.3426 98.7974 59.571 99.9816 59.783 101.636L59.9505 102.944L63.233 114.003L64.9506 125.721" fill="#CCCCCC"/>
<path d="M244.843 123.181L0 126.355L0.00696295 126.892L244.85 123.718L244.843 123.181Z" fill="#CCCCCC"/>
<path d="M81.2361 235.446C80.6881 234.522 78.3173 235.511 77.8815 234.672C77.4472 233.837 79.6499 232.564 80.9084 229.655C81.1353 229.131 82.5655 225.825 81.5067 224.805C79.4999 222.872 70.3168 230.85 67.1031 228.239C66.3979 227.666 65.9051 226.523 63.7706 224.666C62.9214 223.927 62.4079 223.593 61.911 223.717C61.2058 223.894 61.15 224.837 60.3939 226.693C59.2599 229.476 58.5892 229.308 57.9285 231.528C57.4381 233.176 57.5501 234.134 56.973 234.321C56.1563 234.585 55.4046 232.837 54.3695 232.993C53.3133 233.153 52.6748 235.189 52.4731 236.713C52.0946 239.573 53.1449 241.46 53.727 243.444C54.3596 245.601 54.7351 248.88 53.2742 253.523L38.8145 294.263C42.0067 285.903 51.2498 262.987 55.1338 254.471C56.255 252.013 57.493 249.519 60.035 248.535C62.4823 247.587 65.8434 248.153 70.1284 247.121C70.6288 247 72.0175 246.647 72.1923 245.83C72.3368 245.155 71.52 244.778 71.6455 244.145C71.8138 243.297 73.4202 243.287 75.3941 242.308C76.7861 241.618 77.6532 240.797 78.399 240.091C78.6238 239.878 81.9657 236.676 81.2362 235.446H81.2361V235.446Z" fill="#F2F2F2"/>
<path d="M24.3469 256.893C23.7353 256.895 23.5368 258.345 22.9995 258.317C22.464 258.289 22.4747 256.84 21.4103 255.383C21.2184 255.121 20.0088 253.465 19.2027 253.69C17.6749 254.117 18.9408 260.926 16.7322 261.75C16.2475 261.931 15.5439 261.843 14.0166 262.355C13.409 262.559 13.0972 262.714 13.0147 262.994C12.8976 263.391 13.3447 263.691 14.0373 264.597C15.0759 265.957 14.7999 266.237 15.699 267.202C16.3664 267.919 16.869 268.14 16.7941 268.477C16.6881 268.954 15.6132 268.819 15.3914 269.372C15.1651 269.936 15.9799 270.837 16.6696 271.376C17.9641 272.387 19.1934 272.416 20.3352 272.703C21.5762 273.014 23.2941 273.776 25.1513 275.833L40.9748 294.685C37.7928 290.706 29.2122 279.557 26.1532 275.194C25.2701 273.934 24.4035 272.607 24.6539 271.075C24.895 269.601 26.1425 268.114 26.8722 265.714C26.9574 265.433 27.1847 264.65 26.8342 264.328C26.5445 264.062 26.1238 264.355 25.8496 264.11C25.4818 263.783 25.9401 262.992 26.0293 261.74C26.0922 260.858 25.9395 260.196 25.8082 259.626C25.7687 259.454 25.1611 256.89 24.3469 256.893V256.893H24.3469Z" fill="#F2F2F2"/>
<path d="M36.5502 259.632L36.1816 256.343L36.35 256.093C37.1291 254.94 37.5263 253.814 37.531 252.745C37.5318 252.575 37.5239 252.405 37.5159 252.232C37.4841 251.546 37.4444 250.693 37.8892 249.698C38.1386 249.144 38.8391 247.86 39.8922 248.019C40.1758 248.059 40.3902 248.189 40.553 248.342C40.5768 248.304 40.6015 248.265 40.6277 248.224C40.9557 247.724 41.2154 247.509 41.4656 247.303C41.6578 247.144 41.8563 246.98 42.1677 246.593C42.3043 246.423 42.4107 246.274 42.5004 246.148C42.7729 245.768 43.1287 245.316 43.7561 245.324C44.4264 245.355 44.7775 245.91 45.0102 246.277C45.4256 246.931 45.6138 247.403 45.7385 247.716C45.7837 247.83 45.8354 247.959 45.8616 247.999C46.0776 248.316 47.8336 248.019 48.4952 247.911C49.9812 247.663 51.267 247.449 51.7968 248.386C52.1764 249.056 51.8945 249.943 50.9334 251.091C50.634 251.449 50.3155 251.72 50.0328 251.933C50.2671 252.073 50.4768 252.287 50.5618 252.624C50.7619 253.422 50.0765 254.221 48.5254 255.002C48.1402 255.197 47.6216 255.458 46.8949 255.583C46.5526 255.642 46.2444 255.656 45.9807 255.664C45.9752 255.817 45.9394 255.982 45.8465 256.152C45.5741 256.652 45.007 256.891 44.1524 256.834C43.2121 256.784 42.4377 256.605 41.7547 256.448C41.1582 256.311 40.6444 256.195 40.2409 256.222C39.4928 256.282 38.9161 256.881 38.2395 257.658L36.5502 259.632H36.5502Z" fill="#F2F2F2"/>
<path d="M38.2591 240.046L35.1705 241.237L34.8866 241.137C33.5735 240.676 32.3834 240.577 31.3481 240.844C31.1835 240.886 31.0211 240.937 30.8557 240.989C30.2 241.193 29.3849 241.448 28.3103 241.27C27.7108 241.17 26.2916 240.818 26.1781 239.759C26.1446 239.474 26.2162 239.234 26.3225 239.038C26.2795 239.024 26.2364 239.01 26.1898 238.995C25.6226 238.805 25.3493 238.608 25.0861 238.418C24.8837 238.273 24.6751 238.122 24.2212 237.919C24.0222 237.83 23.8507 237.765 23.7066 237.71C23.2703 237.543 22.7421 237.314 22.5907 236.705C22.4514 236.048 22.8986 235.568 23.1945 235.25C23.7221 234.682 24.1307 234.38 24.4018 234.18C24.5009 234.108 24.6123 234.025 24.6441 233.99C24.8966 233.7 24.1638 232.077 23.8915 231.464C23.2749 230.09 22.7414 228.9 23.5135 228.15C24.0656 227.613 24.9945 227.661 26.3491 228.299C26.7708 228.498 27.1143 228.737 27.3919 228.957C27.4677 228.695 27.622 228.438 27.9262 228.27C28.6467 227.874 29.5934 228.334 30.7428 229.637C31.0295 229.96 31.413 230.395 31.7188 231.066C31.8624 231.383 31.9544 231.677 32.029 231.93C32.1779 231.897 32.3468 231.889 32.5347 231.936C33.0878 232.073 33.4621 232.561 33.6236 233.402C33.8145 234.324 33.8373 235.119 33.8584 235.819C33.8776 236.431 33.8957 236.957 34.0242 237.341C34.2724 238.049 34.9979 238.455 35.9209 238.912L38.2592 240.046L38.2591 240.046Z" fill="#F2F2F2"/>
<path d="M36.5502 230.354L36.1816 227.065L36.35 226.815C37.1291 225.662 37.5263 224.536 37.531 223.467C37.5318 223.297 37.5239 223.127 37.5159 222.954C37.4841 222.268 37.4444 221.415 37.8892 220.42C38.1386 219.866 38.8391 218.582 39.8922 218.741C40.1758 218.781 40.3902 218.911 40.553 219.064C40.5768 219.026 40.6015 218.987 40.6277 218.946C40.9557 218.446 41.2154 218.231 41.4656 218.025C41.6578 217.866 41.8563 217.702 42.1677 217.315C42.3043 217.145 42.4107 216.996 42.5004 216.87C42.7729 216.49 43.1287 216.038 43.7561 216.046C44.4264 216.077 44.7775 216.632 45.0102 216.999C45.4256 217.653 45.6138 218.125 45.7385 218.438C45.7837 218.552 45.8354 218.681 45.8616 218.721C46.0776 219.038 47.8336 218.741 48.4952 218.633C49.9812 218.385 51.267 218.171 51.7968 219.108C52.1764 219.778 51.8945 220.665 50.9334 221.813C50.634 222.171 50.3155 222.442 50.0328 222.655C50.2671 222.795 50.4768 223.009 50.5618 223.346C50.7619 224.143 50.0765 224.942 48.5254 225.724C48.1402 225.919 47.6216 226.18 46.8949 226.305C46.5526 226.364 46.2444 226.378 45.9807 226.386C45.9752 226.539 45.9394 226.704 45.8465 226.874C45.5741 227.374 45.007 227.613 44.1524 227.555C43.2121 227.506 42.4377 227.327 41.7547 227.169C41.1582 227.033 40.6444 226.917 40.2409 226.944C39.4928 227.004 38.9161 227.603 38.2395 228.38L36.5502 230.354H36.5502Z" fill="#F2F2F2"/>
<path d="M39.9145 294.209L39.2251 293.777L39.0583 292.982L39.2251 293.777L38.4214 293.869C38.4087 293.795 38.365 293.623 38.2991 293.355C37.9393 291.884 36.8425 287.408 35.9275 280.358C35.289 275.437 34.9276 270.378 34.853 265.319C34.7783 260.252 35.0182 256.416 35.2104 253.333C35.3557 251.007 35.532 248.793 35.7052 246.636C36.1658 240.873 36.6002 235.429 36.277 229.403C36.2055 228.057 36.0554 225.257 34.4193 222.277C33.4702 220.549 32.1629 219.014 30.5332 217.718L31.5466 216.444C33.3455 217.877 34.7918 219.577 35.8457 221.496C37.6597 224.8 37.8233 227.851 37.902 229.317C38.2308 235.45 37.7916 240.946 37.3262 246.764C37.1546 248.914 36.9783 251.118 36.8337 253.434C36.6431 256.489 36.4057 260.292 36.4795 265.294C36.5526 270.292 36.91 275.29 37.5398 280.149C38.4436 287.109 39.5246 291.519 39.8796 292.967C40.0686 293.741 40.1083 293.903 39.9145 294.209V294.209H39.9145Z" fill="#F2F2F2"/>
<path d="M27.5518 220.303C27.4851 220.303 27.4176 220.301 27.3493 220.296C25.9642 220.222 24.6815 219.392 23.5363 217.833C22.9994 217.099 22.7246 216.262 22.1766 214.592C22.0916 214.335 21.6786 213.029 21.4276 211.233C21.2632 210.059 21.2838 209.568 21.5166 209.134C21.7747 208.651 22.1924 208.315 22.6626 208.088C22.642 207.932 22.6586 207.771 22.7262 207.608C23.0033 206.93 23.7404 207.019 24.1391 207.061C24.3408 207.087 24.5926 207.12 24.8642 207.106C25.2915 207.085 25.521 206.958 25.8689 206.768C26.2017 206.585 26.6154 206.358 27.2294 206.232C28.4398 205.98 29.454 206.323 29.7883 206.436C31.5475 207.022 32.4148 208.389 33.4187 209.973C33.6189 210.291 34.3058 211.447 34.7593 213.032C35.0866 214.176 35.0405 214.684 34.942 215.062C34.7419 215.839 34.2693 216.284 33.0692 217.266C31.816 218.293 31.187 218.808 30.6469 219.121C29.3896 219.847 28.6002 220.303 27.5518 220.303V220.303H27.5518Z" fill="#F2F2F2"/>
<path d="M391.015 293.47C391.015 293.771 390.77 294.015 390.469 294.015H12.5742V292.925H390.469C390.77 292.925 391.015 293.169 391.015 293.47Z" fill="#E6E6E6"/>
<path d="M281.921 121.116C281.921 121.116 261.58 123.563 265.011 107.48C268.442 91.3966 287.897 61.6901 287.897 61.6901L298.937 67.8814L286.262 97.8415L291.718 102.146L281.921 121.116V121.116L281.921 121.116Z" fill="#A0616A"/>
<path d="M348.581 101.536L345.715 125.111L273.889 124.759L288.314 99.6886L348.581 101.536Z" fill="#00B0FF"/>
<path d="M305.897 62.9427C310.292 56.8039 310.645 49.5286 306.685 46.6927C302.724 43.8569 295.95 46.5345 291.555 52.6732C287.159 58.812 286.806 66.0874 290.767 68.9233C294.727 71.7591 301.501 69.0815 305.897 62.9427Z" fill="#A0616A"/>
<path d="M346.084 191.416H341.674V293.727H346.084V191.416Z" fill="#3F3D56"/>
<path d="M324.918 191.416H320.508V293.727H324.918V191.416Z" fill="#3F3D56"/>
<path d="M206.289 127.03H201.879V293.727H206.289V127.03Z" fill="#E6E6E6"/>
<path d="M277.289 191.416H272.879V293.727H277.289V191.416Z" fill="#3F3D56"/>
<path d="M260.414 191.416H256.004V293.727H260.414V191.416Z" fill="#3F3D56"/>
<path d="M337.706 189.211H252.545L236.209 212.383L320.948 217.434L337.706 189.211Z" fill="#3F3D56"/>
<path d="M181.768 109.93L182.155 93.1259L130.757 97.0793L130.494 108.466L181.768 109.93Z" fill="#A0616A"/>
<path d="M146.982 95.0715L144.524 100.986L140.994 101.098C140.994 101.098 145.127 102.364 146.276 109.876L142.883 110.892C142.883 110.892 139.626 113.932 133.536 113.637L117.208 112.271L117.146 106.579L128.43 105.275C128.43 105.275 130.945 103.621 118.497 96.8194C118.497 96.8194 114.374 94.2978 118.082 81.8462C118.592 80.1348 120.132 78.9056 121.917 78.8669C122.902 78.8456 123.825 79.1995 124.194 80.4233C125.132 83.5384 124.183 86.6438 126.761 88.5883C129.339 90.5328 146.982 95.0715 146.982 95.0715L146.982 95.0715Z" fill="#2F2E41"/>
<path d="M331.333 174.176C331.333 174.176 313.599 204.338 273.471 198.902C263.922 197.608 255.52 191.931 250.733 183.567C241.482 167.401 227.434 139.095 231.988 123.067L164.119 110.114L158.771 93.631L232.223 84.0896C238.72 83.2456 245.085 86.4051 248.34 92.0906L284.12 154.577L294.787 155.741L331.333 174.176V174.176Z" fill="#2F2E41"/>
<path d="M183.106 116.809L182.14 100.028L131.227 108.104L131.881 119.475L183.106 116.809Z" fill="#A0616A"/>
<path d="M147.239 104.797L145.264 110.89L141.754 111.287C141.754 111.287 145.976 112.216 147.725 119.61L144.426 120.897C144.426 120.897 141.423 124.188 135.33 124.384L118.945 124.337L118.424 118.668L129.568 116.46C129.568 116.46 131.941 114.609 118.986 108.831C118.986 108.831 114.674 106.65 117.368 93.94C117.739 92.1931 119.174 90.8441 120.951 90.6619C121.931 90.5614 122.88 90.8399 123.346 92.0301C124.531 95.0595 123.835 98.2313 126.561 99.962C129.287 101.693 147.239 104.797 147.239 104.797L147.239 104.797H147.239Z" fill="#2F2E41"/>
<path d="M337.356 168.814C337.356 168.814 322.106 200.305 281.67 198.115C272.047 197.594 263.216 192.611 257.772 184.659C247.25 169.29 230.97 142.206 234.221 125.863L165.529 118.412L158.873 102.413L231.319 86.9933C237.727 85.6294 244.325 88.2666 248.027 93.6717L288.719 153.077L299.444 153.379L337.356 168.814H337.356Z" fill="#2F2E41"/>
<path d="M290.87 35.8342L287.342 38.4802L305.864 64.058L309.392 63.176L290.87 35.8342Z" fill="#3F3D56"/>
<path d="M339.029 92.6327L359.315 91.7507L368.135 131.44C368.135 131.44 349.613 201.118 327.564 198.472C327.564 198.472 313.893 188.329 313.893 184.801C313.893 181.273 295.371 172.453 295.371 172.453L290.961 157.459L304.191 137.173C304.191 137.173 309.483 121.297 327.123 112.478L339.029 92.6327L339.029 92.6327V92.6327Z" fill="#00B0FF"/>
<path d="M223.047 123.502H42.6797V127.912H130.879V293.727H135.289V127.912H223.047V123.502Z" fill="#E6E6E6"/>
<path d="M349.613 89.1047C362.765 89.1047 373.426 78.443 373.426 65.291C373.426 52.139 362.765 41.4772 349.613 41.4772C336.461 41.4772 325.799 52.139 325.799 65.291C325.799 78.443 336.461 89.1047 349.613 89.1047Z" fill="#A0616A"/>
<path d="M266.58 95.7197L249.947 102.335L282.581 145.552L294.047 136.732L266.58 95.7197Z" fill="#E6E6E6"/>
<path d="M331.533 178.627C331.533 178.627 325.359 198.163 312.129 188.395C298.899 178.627 279.881 148.639 279.881 148.639L290.079 141.142L312.129 165.06L318.303 161.869L331.533 178.627L331.533 178.627Z" fill="#A0616A"/>
<path d="M341.235 109.832L361.52 122.179L331.533 187.447L312.129 160.987L341.235 109.832Z" fill="#00B0FF"/>
<path d="M287.653 149.013C291.871 146.577 292.231 139.302 288.456 132.763C284.681 126.225 278.201 122.898 273.982 125.334C269.764 127.769 269.404 135.045 273.179 141.583C276.954 148.122 283.434 151.448 287.653 149.013Z" fill="#A0616A"/>
<path d="M352.216 137.392C358.328 117.356 364.887 111.015 371.782 114.985C377.031 118.007 378.611 124.885 375.535 130.102C367.694 143.399 351.538 173.868 354.904 194.062C354.904 194.062 360.196 222.285 317.86 222.285C275.525 222.285 234.953 212.583 234.953 212.583L257.003 209.056L307.147 212.637C318.603 213.456 328.259 203.653 326.729 192.269C326.678 191.894 326.618 191.514 326.548 191.13C324.034 177.304 352.216 137.392 352.216 137.392V137.392Z" fill="#3F3D56"/>
<path d="M340.688 55.4192C338.743 60.8661 343.017 66.5221 348.789 66.1374L348.926 66.1282C352.806 70.9776 352.913 77.8374 349.187 82.8055C348.88 89.2089 349.884 95.6074 352.134 101.61L358.459 118.475L368.195 113.931L372.816 126.264L400 112.26L383.525 75.1897L378.497 55.0783C374.92 40.77 360.324 32.1576 346.07 35.9439L335.134 38.8488C326.494 41.1438 321.521 50.1897 324.213 58.7142V58.7143L340.688 55.4192" fill="#2F2E41"/>
</g>
<defs>
<clipPath id="clip0_1619_1850">
<rect width="400" height="294.685" fill="white"/>
</clipPath>
</defs>
</svg>
