<svg width="370" height="235" viewBox="0 0 370 235" fill="none" xmlns="http://www.w3.org/2000/svg">
<g clip-path="url(#clip0_1182_1009)">
<path d="M337.11 234.548H188.097C184.044 234.548 180.747 229.584 180.747 223.483V72.7009C180.729 71.5507 180.947 70.4165 181.376 69.4249C181.804 68.4333 182.427 67.6231 183.174 67.0846L239.484 20.7012C242.571 18.6166 245.969 17.5295 249.415 17.5248C252.861 17.52 256.261 18.5977 259.351 20.6739L342.018 67.0799C342.769 67.6164 343.395 68.4269 343.827 69.4205C344.258 70.4142 344.478 71.5517 344.461 72.7056V223.483C344.461 229.584 341.163 234.548 337.11 234.548Z" fill="#F2F2F2"/>
<path d="M315.106 234.384H187.146C183.651 234.384 180.807 230.881 180.807 226.574V121.176C180.824 120.298 181.034 119.447 181.41 118.733C181.787 118.019 182.313 117.476 182.919 117.174L242.5 84.7445C247.975 81.7973 254.069 81.7931 259.546 84.7329L319.329 117.176C319.937 117.477 320.463 118.02 320.841 118.734C321.218 119.448 321.429 120.3 321.445 121.179V226.574C321.445 230.881 318.602 234.384 315.106 234.384Z" fill="#495057"/>
<path d="M110.827 123.701C121.182 123.701 129.576 112.279 129.576 98.1885C129.576 84.0985 121.182 72.6762 110.827 72.6762C100.471 72.6762 92.0769 84.0985 92.0769 98.1885C92.0769 112.279 100.471 123.701 110.827 123.701Z" fill="#EC8385"/>
<path d="M118.665 191.074C131.78 191.074 142.412 172.966 142.412 150.628C142.412 128.291 131.78 110.183 118.665 110.183C105.55 110.183 94.9177 128.291 94.9177 150.628C94.9177 172.966 105.55 191.074 118.665 191.074Z" fill="#56AB91"/>
<path d="M118.73 142.496H118.796L119.97 234.107H117.491L118.73 142.496Z" fill="#56AB91"/>
<path d="M122.781 203.145C122.853 203.332 122.868 203.551 122.822 203.754C122.776 203.956 122.673 204.125 122.535 204.224L119.129 206.664L118.582 205.25L121.988 202.81C122.126 202.711 122.286 202.691 122.435 202.754C122.584 202.817 122.708 202.957 122.781 203.145Z" fill="#56AB91"/>
<path d="M50.3921 191.074C63.5074 191.074 74.1395 172.966 74.1395 150.628C74.1395 128.291 63.5074 110.183 50.3921 110.183C37.2768 110.183 26.6448 128.291 26.6448 150.628C26.6448 172.966 37.2768 191.074 50.3921 191.074Z" fill="#56AB91"/>
<path d="M54.508 204.659C54.4354 204.472 54.3111 204.331 54.1623 204.269C54.0136 204.206 53.8526 204.226 53.7148 204.325L51.3371 206.028L50.5227 142.495H50.4574L49.218 234.107H51.697L51.3601 207.817L54.262 205.739C54.3997 205.64 54.503 205.471 54.5491 205.268C54.5953 205.066 54.5805 204.847 54.508 204.659Z" fill="#56AB91"/>
<path d="M84.446 57.4196C101.065 57.4196 114.572 100.027 114.572 128.331C114.572 156.635 101.1 179.58 84.4816 179.58C67.8631 179.58 54.3911 156.635 54.3911 128.331C54.3911 100.027 67.8275 57.4196 84.446 57.4196Z" fill="#56AB91"/>
<path d="M89.6964 196.794C89.6509 196.676 89.5889 196.572 89.5137 196.487C89.4386 196.402 89.3519 196.338 89.2586 196.299C89.1653 196.259 89.0672 196.245 88.9699 196.257C88.8726 196.27 88.7781 196.308 88.6916 196.37L85.6787 198.528L84.6469 118.025H84.5643L82.9937 234.107H86.1349L85.7079 200.795L89.3848 198.161C89.4713 198.099 89.5479 198.015 89.6104 197.913C89.6728 197.81 89.7199 197.692 89.7488 197.565C89.7777 197.438 89.788 197.305 89.779 197.173C89.77 197.04 89.742 196.912 89.6964 196.794Z" fill="#56AB91"/>
<path d="M221.249 161.954V151.053C221.249 149.631 220.834 148.268 220.095 147.262C219.356 146.257 218.354 145.692 217.309 145.692H197.093C196.048 145.692 195.046 146.257 194.307 147.262C193.568 148.268 193.153 149.631 193.153 151.053V161.954H221.249Z" fill="#E0F7EF"/>
<path d="M193.153 163.665V180.557C193.153 181.979 193.568 183.343 194.307 184.348C195.046 185.353 196.048 185.918 197.093 185.918H217.309C218.354 185.918 219.356 185.353 220.095 184.348C220.834 183.343 221.249 181.979 221.249 180.557V163.665H193.153Z" fill="#E0F7EF"/>
<path d="M316.578 132.033L255.884 101.759C252.195 99.919 248.146 99.919 244.457 101.759L183.763 132.033C182.483 132.671 181.11 132.88 179.759 132.641C178.408 132.402 177.119 131.723 176.002 130.661C174.885 129.6 173.973 128.187 173.343 126.543C172.713 124.899 172.384 123.073 172.384 121.219C172.384 118.86 172.917 116.557 173.91 114.623C174.902 112.689 176.308 111.217 177.936 110.405L244.457 77.2242C248.146 75.3842 252.195 75.3842 255.884 77.2242L322.405 110.405C324.033 111.217 325.439 112.689 326.431 114.623C327.424 116.557 327.957 118.86 327.957 121.219C327.957 123.073 327.628 124.899 326.998 126.543C326.368 128.187 325.456 129.6 324.339 130.661C323.222 131.723 321.933 132.402 320.582 132.641C319.231 132.88 317.858 132.671 316.578 132.033Z" fill="#6C757D"/>
<path d="M259.971 234.889H243.749C242.028 234.886 240.377 233.955 239.16 232.298C237.943 230.642 237.258 228.396 237.256 226.054V172.599C237.258 170.257 237.943 168.011 239.16 166.355C240.377 164.698 242.028 163.766 243.749 163.764H259.971C261.692 163.766 263.343 164.698 264.56 166.355C265.778 168.011 266.462 170.257 266.464 172.599V226.054C266.462 228.396 265.778 230.642 264.56 232.298C263.343 233.955 261.692 234.886 259.971 234.889ZM243.749 165.278C242.323 165.281 240.955 166.053 239.947 167.425C238.938 168.798 238.371 170.658 238.369 172.599V226.054C238.371 227.994 238.938 229.855 239.947 231.228C240.955 232.6 242.323 233.372 243.749 233.374H259.971C261.397 233.372 262.765 232.6 263.774 231.228C264.782 229.855 265.35 227.994 265.351 226.054V172.599C265.35 170.658 264.782 168.798 263.774 167.425C262.765 166.053 261.397 165.281 259.971 165.278H243.749Z" fill="#E0F7EF"/>
<path d="M261.544 50.0746C261.283 46.1005 259.938 42.4034 257.774 39.7108C255.611 37.0181 252.784 35.5248 249.852 35.5248C246.92 35.5248 244.094 37.0181 241.93 39.7108C239.766 42.4034 238.421 46.1005 238.16 50.0746H261.544Z" fill="#DEE2E6"/>
<path d="M238.116 51.7863C238.17 55.9729 239.43 59.9632 241.625 62.8979C243.82 65.8326 246.775 67.477 249.852 67.477C252.929 67.477 255.884 65.8326 258.079 62.8979C260.274 59.9632 261.534 55.9729 261.588 51.7863H238.116Z" fill="#DEE2E6"/>
<path d="M259.706 69.4414H239.998C239.059 69.4414 238.158 68.9338 237.494 68.0305C236.831 67.1271 236.458 65.9019 236.458 64.6243C236.458 63.3468 236.831 62.1215 237.494 61.2182C238.158 60.3148 239.059 59.8073 239.998 59.8073H259.706C260.645 59.8073 261.546 60.3148 262.21 61.2182C262.874 62.1215 263.247 63.3468 263.247 64.6243C263.247 65.9019 262.874 67.1271 262.21 68.0305C261.546 68.9338 260.645 69.4414 259.706 69.4414Z" fill="#CCCCCC"/>
<path d="M193.363 180.465C192.522 180.465 191.716 180.919 191.122 181.728C190.528 182.536 190.194 183.633 190.194 184.777C190.194 185.92 190.528 187.017 191.122 187.826C191.716 188.635 192.522 189.089 193.363 189.089H221.039C221.879 189.089 222.686 188.635 223.28 187.826C223.874 187.017 224.208 185.92 224.208 184.777C224.208 183.633 223.874 182.536 223.28 181.728C222.686 180.919 221.879 180.465 221.039 180.465H193.363Z" fill="#CCCCCC"/>
<path d="M279.326 163.665V180.557C279.326 181.979 279.741 183.343 280.48 184.348C281.219 185.353 282.221 185.918 283.266 185.918H303.482C304.527 185.918 305.529 185.353 306.268 184.348C307.006 183.343 307.422 181.979 307.422 180.557V163.665H279.326Z" fill="#E0F7EF"/>
<path d="M307.422 161.954V151.053C307.422 149.631 307.006 148.268 306.268 147.262C305.529 146.257 304.527 145.692 303.482 145.692H283.266C282.221 145.692 281.219 146.257 280.48 147.262C279.741 148.268 279.326 149.631 279.326 151.053V161.954H307.422Z" fill="#E0F7EF"/>
<path d="M261.505 201.038C262.778 201.038 263.811 199.633 263.811 197.9C263.811 196.167 262.778 194.762 261.505 194.762C260.231 194.762 259.198 196.167 259.198 197.9C259.198 199.633 260.231 201.038 261.505 201.038Z" fill="#E0F7EF"/>
<path d="M184.035 199.92L174.95 180.692L175.371 180.324L183.991 198.57L191.015 180.35L191.457 180.666L184.035 199.92Z" fill="#0096C7"/>
<path d="M191.432 174.389H169.821V173.879C169.821 173.053 169.702 172.235 169.47 171.472C169.237 170.709 168.897 170.016 168.468 169.432C168.039 168.848 167.529 168.385 166.968 168.069C166.408 167.753 165.806 167.59 165.2 167.59C164.593 167.59 163.992 167.753 163.431 168.069C162.87 168.385 162.361 168.848 161.931 169.432C161.502 170.016 161.162 170.709 160.929 171.472C160.697 172.235 160.578 173.053 160.578 173.879V174.389H158.454C157.228 174.389 156.053 175.052 155.186 176.231C154.319 177.41 153.832 179.01 153.832 180.678C153.832 182.346 154.319 183.946 155.186 185.125C156.053 186.304 157.228 186.967 158.454 186.967H160.578V234.494C169.787 234.243 160.511 234.747 169.821 234.494V186.967H191.432C192.658 186.967 193.834 186.304 194.7 185.125C195.567 183.946 196.054 182.346 196.054 180.678C196.054 179.01 195.567 177.41 194.7 176.231C193.834 175.052 192.658 174.389 191.432 174.389Z" fill="#495057"/>
<path d="M165.075 182.888C166.04 182.888 166.823 181.822 166.823 180.508C166.823 179.194 166.04 178.128 165.075 178.128C164.109 178.128 163.326 179.194 163.326 180.508C163.326 181.822 164.109 182.888 165.075 182.888Z" fill="#444443"/>
<path d="M194.179 212.035H174.195C173.251 212.034 172.347 211.523 171.679 210.615C171.012 209.707 170.636 208.476 170.635 207.191V198.357C170.636 197.073 171.012 195.842 171.679 194.934C172.347 194.026 173.251 193.515 174.195 193.514H194.179C195.122 193.515 196.027 194.026 196.695 194.934C197.362 195.842 197.738 197.073 197.739 198.357V207.191C197.738 208.476 197.362 209.707 196.695 210.615C196.027 211.523 195.122 212.034 194.179 212.035Z" fill="white"/>
<path d="M190.433 200.565H177.691C176.932 200.565 176.317 201.402 176.317 202.435C176.317 203.467 176.932 204.304 177.691 204.304H190.433C191.192 204.304 191.807 203.467 191.807 202.435C191.807 201.402 191.192 200.565 190.433 200.565Z" fill="#0077B6"/>
<path d="M369.713 235H0.286841C0.210766 235 0.137808 234.959 0.0840146 234.886C0.0302212 234.812 0 234.713 0 234.61C0 234.506 0.0302212 234.407 0.0840146 234.334C0.137808 234.261 0.210766 234.219 0.286841 234.219H369.713C369.789 234.219 369.862 234.261 369.916 234.334C369.97 234.407 370 234.506 370 234.61C370 234.713 369.97 234.812 369.916 234.886C369.862 234.959 369.789 235 369.713 235Z" fill="#B9B9B9"/>
<path d="M307.002 189.594H279.326C278.387 189.594 277.487 189.086 276.823 188.183C276.159 187.28 275.786 186.054 275.786 184.777C275.786 183.499 276.159 182.274 276.823 181.371C277.487 180.467 278.387 179.96 279.326 179.96H307.002C307.941 179.96 308.841 180.467 309.505 181.371C310.169 182.274 310.542 183.499 310.542 184.777C310.542 186.054 310.169 187.28 309.505 188.183C308.841 189.086 307.941 189.594 307.002 189.594Z" fill="#CCCCCC"/>
<path d="M344.18 77.7307C344.18 77.7307 337.468 77.0829 323.772 76.2161C307.446 37.3405 254.385 27.9699 254.385 6.93344e-05V0H319.602C326.128 0 332.385 3.52706 337 9.80525C341.614 16.0835 344.206 24.5985 344.206 33.4772L344.18 77.7307Z" fill="#6C757D"/>
<path d="M287.615 10.2206C287.468 10.2208 287.326 10.3006 287.222 10.4426C287.117 10.5846 287.059 10.7771 287.059 10.9779V36.2622C287.059 36.4629 287.117 36.6554 287.222 36.7974C287.326 36.9394 287.468 37.0193 287.615 37.0195H299.19C299.338 37.0193 299.479 36.9394 299.583 36.7974C299.688 36.6554 299.747 36.4629 299.747 36.2622V10.9779C299.747 10.7771 299.688 10.5846 299.583 10.4426C299.479 10.3006 299.338 10.2208 299.19 10.2206H287.615Z" fill="#F1F6FA"/>
<path d="M319.764 75.6916L259.069 25.9148C255.38 24.0748 251.331 24.0748 247.642 25.9148L186.948 75.6916C185.669 76.3297 184.295 76.5382 182.944 76.2994C181.593 76.0606 180.304 75.3815 179.187 74.3199C178.07 73.2584 177.158 71.8456 176.528 70.2017C175.898 68.5578 175.57 66.7313 175.57 64.8774C175.57 62.5182 176.102 60.216 177.095 58.2819C178.088 56.3478 179.493 54.8752 181.121 54.0632L247.642 1.38002C251.331 -0.460008 255.38 -0.460008 259.069 1.38002L325.591 54.0632C327.219 54.8752 328.624 56.3478 329.617 58.2819C330.61 60.216 331.142 62.5182 331.142 64.8774C331.142 66.7313 330.813 68.5578 330.183 70.2017C329.554 71.8456 328.641 73.2583 327.524 74.3199C326.408 75.3815 325.119 76.0606 323.768 76.2994C322.417 76.5382 321.043 76.3297 319.764 75.6916Z" fill="#6C757D"/>
</g>
<defs>
<clipPath id="clip0_1182_1009">
<rect width="370" height="235" fill="white"/>
</clipPath>
</defs>
</svg>
