<svg width="145" height="110" viewBox="0 0 145 110" fill="none" xmlns="http://www.w3.org/2000/svg">
<g clip-path="url(#clip0_36_151)">
<path d="M31.2032 99.7734C33.9757 99.7734 36.2233 92.9383 36.2233 84.5069C36.2233 76.0755 33.9757 69.2405 31.2032 69.2405C28.4307 69.2405 26.1831 76.0755 26.1831 84.5069C26.1831 92.9383 28.4307 99.7734 31.2032 99.7734Z" fill="#CED4DA"/>
<path d="M31.6672 109.496C29.6565 91.5163 31.6469 73.602 31.6673 73.4233L32.0584 73.522C32.0381 73.6998 30.0592 91.5201 32.0584 109.399L31.6672 109.496Z" fill="#777777"/>
<path d="M35.623 81.2242L31.0835 84.8431L31.2706 85.3645L35.8102 81.7456L35.623 81.2242Z" fill="#777777"/>
<path d="M26.4797 83.037L26.2925 83.5583L30.8315 87.1793L31.0187 86.658L26.4797 83.037Z" fill="#777777"/>
<path d="M132.45 1.01895H124.222V43.4684H132.45V1.01895Z" fill="#CED4DA"/>
<path d="M137.884 35.4828L117.872 0L77.7021 0.547412L53.3345 35.9217L53.8268 36.3935H53.651V109.973H137.83V36.3935L137.884 35.4828Z" fill="#495057"/>
<path d="M117.892 0.075592L92.8921 43.7603V109.972H137.829V35.4501L117.892 0.075592Z" fill="#F2F2F2"/>
<path d="M120.108 73.3563H110.931V85.4462H120.108V73.3563Z" fill="#777777"/>
<path d="M120.108 52.4299H110.931V64.3281H120.108V52.4299Z" fill="#777777"/>
<path d="M120.108 73.3563H110.931V85.4462H120.108V73.3563Z" fill="#777777"/>
<path d="M120.108 52.4299H110.931V64.3281H120.108V52.4299Z" fill="#777777"/>
<path d="M86.6602 107.815C86.6602 107.815 86.8569 101.671 90.8901 102.385L86.6602 107.815Z" fill="#B9B9B9"/>
<path d="M85.5205 101.968C86.6354 101.968 87.5391 100.621 87.5391 98.9596C87.5391 97.298 86.6354 95.951 85.5205 95.951C84.4057 95.951 83.502 97.298 83.502 98.9596C83.502 100.621 84.4057 101.968 85.5205 101.968Z" fill="#B9B9B9"/>
<path d="M85.7617 104.026H85.1919V109.97H85.7617V104.026Z" fill="#2EE487"/>
<path d="M19.1415 90.822C24.5642 90.822 28.9602 77.4535 28.9602 60.9626C28.9602 44.4718 24.5642 31.1033 19.1415 31.1033C13.7188 31.1033 9.32275 44.4718 9.32275 60.9626C9.32275 77.4535 13.7188 90.822 19.1415 90.822Z" fill="#CED4DA"/>
<path d="M20.2352 109.791C16.308 74.6722 20.1956 39.6811 20.2353 39.3317L20.6264 39.4305C20.5868 39.7789 16.7106 74.676 20.6265 109.694L20.2352 109.791Z" fill="#777777"/>
<path d="M27.8756 54.791L18.9966 61.8694L19.1837 62.3908L28.0627 55.3124L27.8756 54.791Z" fill="#777777"/>
<path d="M9.8132 58.3368L9.62598 58.8582L18.5037 65.9402L18.6909 65.4188L9.8132 58.3368Z" fill="#777777"/>
<path d="M42.3966 83.8512C49.8172 83.8512 55.8328 65.5575 55.8328 42.991C55.8328 20.4246 49.8172 2.13083 42.3966 2.13083C34.976 2.13083 28.9604 20.4246 28.9604 42.991C28.9604 65.5575 34.976 83.8512 42.3966 83.8512Z" fill="#CED4DA"/>
<path d="M43.9651 109.791C38.593 61.7514 43.9109 13.8869 43.9652 13.409L44.3563 13.5078C44.3021 13.9847 38.9956 61.7551 44.3564 109.694L43.9651 109.791Z" fill="#777777"/>
<path d="M54.3826 34.6416L42.2324 44.3277L42.4195 44.8492L54.5697 35.163L54.3826 34.6416Z" fill="#777777"/>
<path d="M29.5969 39.4939L29.4097 40.0152L41.5581 49.7061L41.7454 49.1848L29.5969 39.4939Z" fill="#777777"/>
<path d="M145 109.486H0V110H145V109.486Z" fill="#B9B9B9"/>
<path d="M79.3229 70.1483H70.1455V82.2382H79.3229V70.1483Z" fill="#F1F6FA"/>
<path d="M79.3229 49.222H70.1455V61.1201H79.3229V49.222Z" fill="#F1F6FA"/>
<path d="M79.3229 76.6189H70.1455V88.7088H79.3229V76.6189Z" fill="#F1F6FA"/>
<path d="M79.3229 49.222H70.1455V61.1201H79.3229V49.222Z" fill="#F1F6FA"/>
<path d="M59.4341 35.4806C63.891 35.4806 67.504 29.0966 67.504 21.2216C67.504 13.3466 63.891 6.96259 59.4341 6.96259C54.9773 6.96259 51.3643 13.3466 51.3643 21.2216C51.3643 29.0966 54.9773 35.4806 59.4341 35.4806Z" fill="#EC8385"/>
</g>
<defs>
<clipPath id="clip0_36_151">
<rect width="145" height="110" fill="white"/>
</clipPath>
</defs>
</svg>
