<svg width="170" height="120" viewBox="0 0 170 120" fill="none" xmlns="http://www.w3.org/2000/svg">
<g clip-path="url(#clip0_32_59)">
<path d="M20.5432 120L20.2515 119.924C23.5043 103.173 31.679 87.9621 43.2697 77.0925C52.0326 68.8874 62.4548 63.3999 73.5548 61.1465C84.6548 58.8931 96.0675 59.948 106.718 64.2119C117.369 68.4757 126.907 75.8083 134.435 85.5191C141.963 95.2299 147.233 106.999 149.748 119.72L149.457 119.796C142.571 84.7874 116.074 60.3367 85.02 60.3367C54.3731 60.3367 27.2567 85.4287 20.5432 120Z" fill="#777777"/>
<path d="M62.3681 21.4197C66.8532 21.4197 70.4891 17.2095 70.4891 12.0159C70.4891 6.82243 66.8532 2.61224 62.3681 2.61224C57.883 2.61224 54.2471 6.82243 54.2471 12.0159C54.2471 17.2095 57.883 21.4197 62.3681 21.4197Z" fill="#EC8385"/>
<path d="M50.4932 31.508L47.4395 28.679L64.5402 10.9989H107.903V26.5574L79.8087 48.4808L50.4932 31.508Z" fill="#495057"/>
<path d="M115.809 20.9164V11.3521H110.052V13.6944L107.903 10.9989L93.8558 28.679L88.3592 32.9223L79.8364 105.025L92.6897 119.909H122.561V29.3863L115.809 20.9164Z" fill="#CCCCCC"/>
<path d="M93.8558 28.6791H47.4395V119.909H93.8558V28.6791Z" fill="#F2F2F2"/>
<path d="M74.0064 97.6318H65.4561V119.909H74.0064V97.6318Z" fill="#6C757D"/>
<path d="M56.2952 103.997V100.461H52.6309V103.997H55.9899H56.2952Z" fill="#444443"/>
<path d="M55.9899 106.825H52.6309V110.361H56.2952V106.825H55.9899Z" fill="#444443"/>
<path d="M62.4027 100.461H58.7383V103.997H62.4027V100.461Z" fill="#444443"/>
<path d="M62.4027 106.825H58.7383V110.361H62.4027V106.825Z" fill="#444443"/>
<path d="M81.3357 103.997V100.461H77.6714V103.997H81.0304H81.3357Z" fill="#444443"/>
<path d="M81.0304 106.825H77.6714V110.361H81.3357V106.825H81.0304Z" fill="#444443"/>
<path d="M87.4428 100.461H83.7783V103.997H87.4428V100.461Z" fill="#444443"/>
<path d="M87.4428 106.825H83.7783V110.361H87.4428V106.825Z" fill="#444443"/>
<path d="M106.987 33.2758V29.74H103.322V33.2758H106.681H106.987Z" fill="#444443"/>
<path d="M106.681 36.1048H103.322V39.6407H106.987V36.1048H106.681Z" fill="#444443"/>
<path d="M113.094 29.7399H109.43V33.2759H113.094V29.7399Z" fill="#444443"/>
<path d="M113.094 36.1047H109.43V39.6408H113.094V36.1047Z" fill="#444443"/>
<path d="M106.987 53.0777V49.5416H103.322V53.0777H106.681H106.987Z" fill="#444443"/>
<path d="M106.681 55.9065H103.322V59.4425H106.987V55.9065H106.681Z" fill="#444443"/>
<path d="M113.094 49.5417H109.43V53.0777H113.094V49.5417Z" fill="#444443"/>
<path d="M113.094 55.9065H109.43V59.4426H113.094V55.9065Z" fill="#444443"/>
<path d="M106.987 72.8795V69.3434H103.322V72.8795H106.681H106.987Z" fill="#444443"/>
<path d="M106.681 75.7083H103.322V79.2444H106.987V75.7083H106.681Z" fill="#444443"/>
<path d="M113.094 69.3435H109.43V72.8795H113.094V69.3435Z" fill="#444443"/>
<path d="M113.094 75.7083H109.43V79.2444H113.094V75.7083Z" fill="#444443"/>
<path d="M106.987 92.6813V89.1453H103.322V92.6813H106.681H106.987Z" fill="#444443"/>
<path d="M106.681 95.5101H103.322V99.0462H106.987V95.5101H106.681Z" fill="#444443"/>
<path d="M113.094 89.1453H109.43V92.6813H113.094V89.1453Z" fill="#444443"/>
<path d="M113.094 95.5101H109.43V99.0461H113.094V95.5101Z" fill="#444443"/>
<path d="M88.0538 33.2759H52.6309V41.7624H88.0538V33.2759Z" fill="#6C757D"/>
<path d="M88.0538 50.2489H52.6309V58.7354H88.0538V50.2489Z" fill="#6C757D"/>
<path d="M88.0538 67.2219H52.6309V75.7083H88.0538V67.2219Z" fill="#6C757D"/>
<path d="M88.0538 84.1948H52.6309V92.6813H88.0538V84.1948Z" fill="#6C757D"/>
<path d="M170 119.553H0V119.899H170V119.553Z" fill="#B9B9B9"/>
<path d="M29.3471 79.5741H28.4688V119.75H29.3471V79.5741Z" fill="#B9B9B9"/>
<path d="M37.4533 84.6941C37.5092 98.7426 28.9735 110.177 28.9735 110.177C28.9735 110.177 20.3472 98.8342 20.2913 84.7857C20.2354 70.7372 28.771 59.3028 28.771 59.3028C28.771 59.3028 37.3974 70.6456 37.4533 84.6941Z" fill="#CED4DA"/>
<path opacity="0.1" d="M37.4533 84.6941C37.5092 98.7426 28.9735 110.177 28.9735 110.177C28.9735 110.177 20.3472 98.8342 20.2913 84.7857C20.2354 70.7372 28.771 59.3028 28.771 59.3028C28.771 59.3028 37.3974 70.6456 37.4533 84.6941Z" fill="#CED4DA"/>
<path d="M17.9282 79.5741H17.0498V119.75H17.9282V79.5741Z" fill="#B9B9B9"/>
<path d="M26.0343 84.6941C26.0903 98.7426 17.5546 110.177 17.5546 110.177C17.5546 110.177 8.92825 98.8342 8.87234 84.7857C8.81643 70.7372 17.3521 59.3028 17.3521 59.3028C17.3521 59.3028 25.9784 70.6456 26.0343 84.6941Z" fill="#CED4DA"/>
<path d="M141.376 28.6223C134.457 28.6592 128.825 28.7776 128.825 28.7776C128.825 28.7776 135.519 18.5096 141.351 22.3138C147.182 26.118 153.881 28.6438 153.881 28.6438C153.881 28.6438 148.295 28.5853 141.376 28.6223Z" fill="#F2F2F2"/>
<path d="M26.0989 48.3593C19.1797 48.3963 13.5479 48.5146 13.5479 48.5146C13.5479 48.5146 20.2422 38.2466 26.0738 42.0509C31.9053 45.8551 38.6042 48.3809 38.6042 48.3809C38.6042 48.3809 33.018 48.3224 26.0989 48.3593Z" fill="#F2F2F2"/>
<path d="M51.2175 7.15388C44.2984 7.19081 38.6665 7.30918 38.6665 7.30918C38.6665 7.30918 45.3609 -2.95882 51.1924 0.845399C57.0239 4.64962 63.7229 7.17546 63.7229 7.17546C63.7229 7.17546 58.1366 7.11695 51.2175 7.15388Z" fill="#F2F2F2"/>
<path d="M155.633 79.5741H154.754V119.75H155.633V79.5741Z" fill="#B9B9B9"/>
<path d="M163.739 84.6941C163.795 98.7426 155.259 110.177 155.259 110.177C155.259 110.177 146.633 98.8342 146.577 84.7857C146.521 70.7372 155.057 59.3028 155.057 59.3028C155.057 59.3028 163.683 70.6456 163.739 84.6941Z" fill="#CED4DA"/>
<path d="M123.301 94.8122H132.166V92.3345H137.057V94.8122H146.227V105.785H137.057V119.589H132.166V105.785H123.301L118.716 99.7676L123.301 94.8122Z" fill="#6C757D"/>
</g>
<defs>
<clipPath id="clip0_32_59">
<rect width="170" height="120" fill="white"/>
</clipPath>
</defs>
</svg>
