<svg width="160" height="155" viewBox="0 0 160 155" fill="none" xmlns="http://www.w3.org/2000/svg">
<g clip-path="url(#clip0_953_877)">
<path d="M152.553 30.1513H7.44711C5.4727 30.1482 3.57979 29.0553 2.18367 27.1122C0.787553 25.1692 0.00223003 22.5347 0 19.7868V10.3645C0.00223003 7.61663 0.787553 4.98218 2.18367 3.03913C3.57979 1.09608 5.4727 0.00310742 7.44711 2.86102e-06H152.553C154.527 0.0031065 156.42 1.09607 157.816 3.03913C159.212 4.98218 159.998 7.61663 160 10.3645V19.7868C159.998 22.5347 159.212 25.1692 157.816 27.1122C156.42 29.0553 154.527 30.1482 152.553 30.1513ZM7.44711 0.628152C5.59236 0.631079 3.81418 1.65782 2.50267 3.48311C1.19117 5.30839 0.45344 7.78318 0.451337 10.3645V19.7868C0.45344 22.3682 1.19117 24.8429 2.50267 26.6682C3.81418 28.4935 5.59236 29.5202 7.44711 29.5232H152.553C154.408 29.5202 156.186 28.4935 157.497 26.6682C158.809 24.8429 159.547 22.3682 159.549 19.7868V10.3645C159.547 7.78318 158.809 5.30839 157.497 3.48311C156.186 1.65782 154.408 0.631079 152.553 0.628152H7.44711Z" fill="#3F3D56"/>
<path d="M114.866 9.10821H18.505C16.137 9.10821 14.2173 11.7799 14.2173 15.0757V15.0757C14.2173 18.3714 16.137 21.0431 18.505 21.0431H114.866C117.234 21.0431 119.154 18.3714 119.154 15.0757C119.154 11.7799 117.234 9.10821 114.866 9.10821Z" fill="#E6E6E6"/>
<path d="M127.504 61.4466H31.1425C28.7744 61.4466 26.8547 64.1183 26.8547 67.4141V67.4141C26.8547 70.7098 28.7744 73.3815 31.1425 73.3815H127.504C129.872 73.3815 131.791 70.7098 131.791 67.4141C131.791 64.1183 129.872 61.4466 127.504 61.4466Z" fill="#0096C7"/>
<path d="M127.504 99.3937H31.1425C28.7744 99.3937 26.8547 102.065 26.8547 105.361V105.361C26.8547 108.657 28.7744 111.329 31.1425 111.329H127.504C129.872 111.329 131.791 108.657 131.791 105.361C131.791 102.065 129.872 99.3937 127.504 99.3937Z" fill="#E6E6E6"/>
<path d="M127.504 137.341H31.1425C28.7744 137.341 26.8547 140.012 26.8547 143.308V143.308C26.8547 146.604 28.7744 149.276 31.1425 149.276H127.504C129.872 149.276 131.791 146.604 131.791 143.308C131.791 140.012 129.872 137.341 127.504 137.341Z" fill="#E6E6E6"/>
<path d="M145.894 21.5225C145.792 21.7267 145.635 21.8658 145.458 21.909C145.282 21.9523 145.101 21.8963 144.954 21.7534L141.269 18.1854C141.123 18.0424 141.023 17.8241 140.992 17.5787C140.961 17.3332 141.001 17.0805 141.104 16.8763C141.206 16.6721 141.363 16.5331 141.54 16.4898C141.716 16.4465 141.897 16.5025 142.044 16.6455L145.729 20.2135C145.875 20.3565 145.975 20.5747 146.006 20.8202C146.037 21.0657 145.997 21.3183 145.894 21.5225Z" fill="#6C63FF"/>
<path d="M141.711 17.4688C141.167 18.5498 140.405 19.3821 139.522 19.8604C138.638 20.3387 137.672 20.4415 136.746 20.1559C135.821 19.8703 134.977 19.2091 134.321 18.2558C133.665 17.3025 133.227 16.1001 133.063 14.8004C132.898 13.5008 133.014 12.1624 133.396 10.9545C133.778 9.74663 134.408 8.72345 135.208 8.01438C136.008 7.30531 136.941 6.9422 137.888 6.97098C138.836 6.99975 139.757 7.41911 140.534 8.17603C141.574 9.19231 142.282 10.7414 142.503 12.4836C142.724 14.2257 142.439 16.0185 141.711 17.4688ZM134.839 10.7715C134.431 11.5822 134.205 12.5431 134.189 13.5326C134.174 14.5221 134.369 15.4958 134.751 16.3305C135.134 17.1653 135.685 17.8236 136.336 18.2222C136.987 18.6208 137.708 18.7418 138.408 18.5699C139.109 18.398 139.757 17.941 140.27 17.2566C140.784 16.5721 141.14 15.6911 141.294 14.7248C141.448 13.7585 141.393 12.7504 141.135 11.8279C140.877 10.9055 140.429 10.1101 139.846 9.54246C139.065 8.7827 138.099 8.48541 137.16 8.71581C136.221 8.94622 135.386 9.6855 134.839 10.7715Z" fill="#0096C7"/>
<path d="M148.378 79.0747H11.6219C11.5621 79.0747 11.5047 79.0417 11.4623 78.9828C11.42 78.9239 11.3962 78.844 11.3962 78.7607C11.3962 78.6774 11.42 78.5975 11.4623 78.5386C11.5047 78.4797 11.5621 78.4466 11.6219 78.4466H148.378C148.438 78.4466 148.495 78.4797 148.537 78.5386C148.58 78.5975 148.604 78.6774 148.604 78.7607C148.604 78.844 148.58 78.9239 148.537 78.9828C148.495 79.0417 148.438 79.0747 148.378 79.0747Z" fill="#3F3D56"/>
<path d="M148.378 117.037H11.6219C11.5621 117.037 11.5047 117.004 11.4623 116.945C11.42 116.887 11.3962 116.807 11.3962 116.723C11.3962 116.64 11.42 116.56 11.4623 116.501C11.5047 116.442 11.5621 116.409 11.6219 116.409H148.378C148.438 116.409 148.495 116.442 148.537 116.501C148.58 116.56 148.604 116.64 148.604 116.723C148.604 116.807 148.58 116.887 148.537 116.945C148.495 117.004 148.438 117.037 148.378 117.037Z" fill="#3F3D56"/>
<path d="M148.378 155H11.6219C11.5621 155 11.5047 154.967 11.4623 154.908C11.42 154.849 11.3962 154.769 11.3962 154.686C11.3962 154.603 11.42 154.523 11.4623 154.464C11.5047 154.405 11.5621 154.372 11.6219 154.372H148.378C148.438 154.372 148.495 154.405 148.537 154.464C148.58 154.523 148.604 154.603 148.604 154.686C148.604 154.769 148.58 154.849 148.537 154.908C148.495 154.967 148.438 155 148.378 155Z" fill="#3F3D56"/>
</g>
<defs>
<clipPath id="clip0_953_877">
<rect width="160" height="155" fill="white"/>
</clipPath>
</defs>
</svg>
