<svg width="210" height="185" viewBox="0 0 210 185" fill="none" xmlns="http://www.w3.org/2000/svg">
<path d="M141.555 131.149H66.2219C59.8898 131.149 54.7383 126.282 54.7383 120.299V49.1257C54.7383 43.1432 59.8898 38.2761 66.2219 38.2761H141.555C147.887 38.2761 153.038 43.1432 153.038 49.1257V120.299C153.038 126.282 147.887 131.149 141.555 131.149ZM66.2219 40.0121C60.8944 40.0121 56.5757 44.0924 56.5757 49.1257V120.299C56.5757 125.332 60.8944 129.413 66.2219 129.413H118.991C136.78 129.413 151.201 115.788 151.201 98.981V49.1257C151.201 44.0924 146.882 40.0121 141.555 40.0121H66.2219V40.0121Z" fill="#F2F2F2"/>
<path d="M74.3439 47.4133C70.7784 47.4133 67.8779 50.1537 67.8779 53.5223V63.0841C67.8779 66.4527 70.7784 69.193 74.3439 69.193H84.4645C88.0299 69.193 90.9304 66.4527 90.9304 63.0841V53.5223C90.9304 50.1537 88.0299 47.4133 84.4645 47.4133H74.3439Z" fill="#F2F2F2"/>
<path d="M74.3439 74.3311C70.7784 74.3311 67.8779 77.0715 67.8779 80.4401V90.0019C67.8779 93.3705 70.7784 96.1108 74.3439 96.1108H84.4645C88.0299 96.1108 90.9304 93.3705 90.9304 90.0019V80.4401C90.9304 77.0715 88.0299 74.3311 84.4645 74.3311H74.3439Z" fill="#F2F2F2"/>
<path d="M74.3439 101.249C70.7784 101.249 67.8779 103.989 67.8779 107.358V116.92C67.8779 120.288 70.7784 123.029 74.3439 123.029H84.4645C88.0299 123.029 90.9304 120.288 90.9304 116.92V107.358C90.9304 103.989 88.0299 101.249 84.4645 101.249H74.3439Z" fill="#F2F2F2"/>
<path d="M81.055 24.0846C76.5624 24.0846 72.9077 27.5375 72.9077 31.782V43.8302C72.9077 48.0747 76.5624 51.5277 81.055 51.5277H93.8072C98.2998 51.5277 101.954 48.0747 101.954 43.8302V31.782C101.954 27.5375 98.2998 24.0846 93.8072 24.0846H81.055Z" fill="#0096C7"/>
<path d="M123.038 57.7542C118.546 57.7542 114.891 61.2071 114.891 65.4517V77.4998C114.891 81.7443 118.546 85.1973 123.038 85.1973H135.791C140.283 85.1973 143.938 81.7443 143.938 77.4998V65.4517C143.938 61.2071 140.283 57.7542 135.791 57.7542H123.038Z" fill="#0096C7"/>
<path d="M104.786 179.024L102.195 179.003L101.048 169.342L104.872 169.373L104.786 179.024Z" fill="#A0616A"/>
<path d="M96.4878 182.916C96.4822 183.518 96.9962 184.014 97.6362 184.02L102.787 184.06L103.689 182.334L104.02 184.069L105.963 184.086L105.473 177.895L104.796 177.853L102.038 177.673L101.149 177.617L101.133 179.369L96.9954 182.02C96.6806 182.222 96.491 182.557 96.4878 182.916H96.4878Z" fill="#2F2E41"/>
<path d="M117.967 179.024L115.376 179.003L114.229 169.342L118.053 169.373L117.967 179.024Z" fill="#A0616A"/>
<path d="M109.669 182.916C109.663 183.518 110.177 184.014 110.817 184.02L115.968 184.06L116.87 182.334L117.201 184.069L119.145 184.086L118.654 177.895L117.978 177.853L115.22 177.673L114.33 177.617L114.314 179.369L110.177 182.02C109.862 182.222 109.672 182.557 109.669 182.916Z" fill="#2F2E41"/>
<path d="M94.62 100.916L105.121 101.229L115.07 103.318C115.07 103.318 114.075 104.467 117.391 107.6C117.391 107.6 121.812 114.91 118.717 122.012L117.391 150.418C117.391 150.418 121.258 170.443 118.303 176.816L114.398 177.046L107.789 150.649L104.568 122.221L103.021 150.209C103.021 150.209 108.941 169.42 105.203 177.046L100.973 176.816L93.7357 150.209C93.7357 150.209 90.6406 119.505 91.0828 113.657C91.5249 107.809 94.62 100.916 94.62 100.916H94.62Z" fill="#2F2E41"/>
<path d="M129.885 56.0294C128.45 56.3805 127.587 57.7647 127.959 59.121C128.129 59.7425 128.531 60.248 129.052 60.582L129.052 60.5855L128.848 65.2458L132.623 66.8962L132.924 59.7248L132.898 59.7255C133.225 59.1746 133.338 58.5091 133.157 57.8492C132.786 56.4929 131.321 55.6782 129.885 56.0294V56.0294Z" fill="#A0616A"/>
<path d="M108.788 72.6617C107.995 71.9191 107.535 70.9123 107.518 69.8175C107.495 68.3487 108.274 67.0157 109.602 66.2516C111.131 65.3717 113.043 65.4607 114.474 66.4782L126.327 74.9101L128.439 62.7632L132.974 64.1424L131.892 79.9592C131.816 81.0656 131.154 82.0403 130.121 82.5664C129.088 83.0925 127.863 83.0794 126.843 82.5312L109.713 73.3235C109.369 73.1385 109.059 72.9154 108.788 72.6617V72.6617Z" fill="#3F3D56"/>
<path d="M90.7145 49.2351C91.4723 50.4393 91.0532 51.996 89.7786 52.7119C89.1945 53.0399 88.5327 53.132 87.9135 53.0223L87.9111 53.0249L84.5828 56.4698L80.6724 55.131L85.8025 49.8378L85.8206 49.8558C85.9987 49.2469 86.4144 48.699 87.0345 48.3507C88.3092 47.6348 89.9568 48.0307 90.7145 49.2351Z" fill="#A0616A"/>
<path d="M92.1519 74.9345L73.1257 70.0788C71.9929 69.7897 71.1128 68.9839 70.7713 67.9231C70.4299 66.8624 70.6862 65.7301 71.4569 64.894L82.4753 52.942L86.7232 54.9789L79.1712 65.0098L93.8722 66.9066C95.6462 67.1355 97.0705 68.3443 97.5008 69.9864C97.8744 71.4123 97.4343 72.8772 96.3234 73.9048C95.4953 74.6709 94.4183 75.0798 93.3018 75.0797C92.9204 75.0797 92.5341 75.032 92.1519 74.9345H92.1519Z" fill="#3F3D56"/>
<path d="M119.277 105.095L92.6713 106.248C91.9405 105.2 92.1384 103.623 93.1618 101.649C97.0256 94.1957 94.0912 80.0953 92.1172 72.7531C91.5633 70.6931 93.0501 68.6452 95.2886 68.4337L97.7972 68.1967L100.116 61.5089H108.237L111.607 65.1455L117.324 68.4273C116.284 78.5558 111.849 92.8581 118.167 100.031C119.548 101.599 119.94 103.296 119.277 105.095Z" fill="#3F3D56"/>
<path d="M103.144 61.6633C107.513 61.6633 111.054 58.3172 111.054 54.1897C111.054 50.0621 107.513 46.716 103.144 46.716C98.775 46.716 95.2334 50.0621 95.2334 54.1897C95.2334 58.3172 98.775 61.6633 103.144 61.6633Z" fill="#A0616A"/>
<path d="M112.095 49.4058C113.195 45.6148 101.2 42.3639 98.8692 45.4168C98.5451 44.9828 97.3472 44.7191 96.7976 44.8523C96.248 44.9854 95.7858 45.3183 95.3348 45.6405C94.7148 46.0905 94.0722 46.5565 93.6917 47.2036C93.3083 47.848 93.2492 48.7268 93.7649 49.286C94.1736 49.7307 94.8918 52.0938 95.5062 52.211C95.9346 52.2935 96.2954 52.3601 96.6054 52.408C96.8816 52.0272 97.586 51.5489 97.5353 51.0882C97.9524 51.3492 97.8 51.8083 97.7159 52.2775C97.4359 53.8401 91.1264 65.9357 94.7401 62.3714C95.0981 62.5711 95.5406 62.7575 96.0508 62.9279C96.916 61.695 97.6263 60.2411 98.0942 58.7206L98.0975 58.7487C98.2586 60.07 99.2806 61.1543 100.633 61.5244C106.057 63.0091 110.445 60.8305 111.954 56.9017C111.402 55.8419 111.161 55.957 111.211 55.9255C111.9 55.4863 112.848 55.7735 113.145 56.5078C113.232 56.7243 113.312 56.9091 113.381 57.0482C114.167 54.3906 115.102 54.7742 112.095 49.4058H112.095Z" fill="#2F2E41"/>
<path d="M108.353 46.6553L107.799 43.979C107.752 43.754 107.708 43.5099 107.816 43.3043C107.953 43.0402 108.308 42.9307 108.617 42.9728C108.925 43.0149 109.156 43.2812 109.463 43.3325C110.53 43.5107 111.941 42.5147 112.324 45.0345C112.483 46.0852 114.258 46.1961 114.85 47.0978C115.443 47.9995 115.515 49.301 114.707 50.0376C114.061 50.626 113.024 50.6939 112.185 50.3933C111.346 50.0928 110.672 49.4858 110.084 48.8456C109.496 48.2054 108.964 47.5127 108.285 46.958" fill="#2F2E41"/>
<path d="M112.517 50.726C110.353 50.4403 108.877 49.6965 108.132 48.5155C107.157 46.9696 107.81 45.2673 107.838 45.1956L108.296 45.3563C108.29 45.372 107.697 46.9302 108.554 48.2833C109.221 49.336 110.577 50.0042 112.585 50.2692L112.517 50.726Z" fill="#0096C7"/>
<path d="M122.675 21.8078C116.312 21.8078 111.134 16.916 111.134 10.9039C111.134 4.89185 116.312 0 122.675 0C129.039 0 134.216 4.89185 134.216 10.9039C134.216 16.916 129.039 21.8078 122.675 21.8078ZM122.675 4.36156C118.857 4.36156 115.751 7.29625 115.751 10.9039C115.751 14.5116 118.857 17.4462 122.675 17.4462C126.494 17.4462 129.6 14.5116 129.6 10.9039C129.6 7.29625 126.494 4.36156 122.675 4.36156Z" fill="#0096C7"/>
<path d="M140.432 29.218C139.866 29.218 139.299 29.0232 138.854 28.6281L128.022 19.0371C127.091 18.214 127.044 16.834 127.916 15.9555C128.786 15.0738 130.247 15.0302 131.178 15.8554L142.01 25.4464C142.941 26.2695 142.988 27.6495 142.116 28.528C141.662 28.9869 141.047 29.218 140.432 29.218Z" fill="#0096C7"/>
</svg>
