<svg width="160" height="120" viewBox="0 0 160 120" fill="none" xmlns="http://www.w3.org/2000/svg">
<g clip-path="url(#clip0_32_110)">
<path d="M145.777 119.769H81.3393C79.5865 119.769 78.1606 117.234 78.1606 114.119V37.1238C78.1531 36.5365 78.2473 35.9574 78.4327 35.451C78.618 34.9446 78.8873 34.5309 79.2104 34.256L103.561 10.5708C104.895 9.50634 106.365 8.95125 107.855 8.94883C109.345 8.94641 110.816 9.49671 112.152 10.5569L147.9 34.2536C148.224 34.5275 148.495 34.9414 148.682 35.4488C148.868 35.9562 148.963 36.537 148.956 37.1262V114.119C148.956 117.234 147.53 119.769 145.777 119.769Z" fill="#F2F2F2"/>
<path d="M136.262 119.686H80.928C79.4166 119.686 78.187 117.896 78.187 115.697V61.8772C78.1941 61.4287 78.285 60.994 78.4479 60.6295C78.6108 60.2651 78.8381 59.9878 79.1004 59.8336L104.865 43.2738C107.233 41.7688 109.868 41.7667 112.236 43.2679L138.088 59.8344C138.351 59.9882 138.579 60.2654 138.742 60.6301C138.905 60.9947 138.996 61.4299 139.003 61.8789V115.697C139.003 117.896 137.774 119.686 136.262 119.686Z" fill="#495057"/>
<path d="M47.9249 63.1664C52.4028 63.1664 56.0328 57.3337 56.0328 50.1388C56.0328 42.9439 52.4028 37.1113 47.9249 37.1113C43.447 37.1113 39.8169 42.9439 39.8169 50.1388C39.8169 57.3337 43.447 63.1664 47.9249 63.1664Z" fill="#EC8385"/>
<path d="M51.3145 97.5697C56.986 97.5697 61.5837 88.323 61.5837 76.9167C61.5837 65.5103 56.986 56.2636 51.3145 56.2636C45.6431 56.2636 41.0454 65.5103 41.0454 76.9167C41.0454 88.323 45.6431 97.5697 51.3145 97.5697Z" fill="#DEE2E6"/>
<path d="M51.3428 72.7637H51.371L51.8789 119.544H50.8069L51.3428 72.7637Z" fill="#B9B9B9"/>
<path d="M53.0943 103.734C53.1257 103.829 53.1321 103.941 53.1122 104.044C53.0922 104.148 53.0476 104.234 52.988 104.285L51.5151 105.531L51.2786 104.809L52.7514 103.563C52.811 103.512 52.8806 103.502 52.9449 103.534C53.0092 103.566 53.063 103.638 53.0943 103.734Z" fill="#B9B9B9"/>
<path d="M21.7911 97.5697C27.4626 97.5697 32.0602 88.323 32.0602 76.9167C32.0602 65.5103 27.4626 56.2636 21.7911 56.2636C16.1196 56.2636 11.522 65.5103 11.522 76.9167C11.522 88.323 16.1196 97.5697 21.7911 97.5697Z" fill="#DEE2E6"/>
<path d="M23.571 104.507C23.5396 104.411 23.4859 104.339 23.4215 104.307C23.3572 104.275 23.2876 104.286 23.228 104.336L22.1998 105.206L21.8476 72.7636H21.8194L21.2834 119.544H22.3555L22.2097 106.12L23.4646 105.058C23.5242 105.008 23.5688 104.921 23.5888 104.818C23.6087 104.715 23.6023 104.603 23.571 104.507Z" fill="#B9B9B9"/>
<path d="M36.5172 29.3206C43.7036 29.3206 49.5447 51.0775 49.5447 65.5306C49.5447 79.9837 43.719 91.7003 36.5326 91.7003C29.3462 91.7003 23.5205 79.9837 23.5205 65.5306C23.5205 51.0775 29.3308 29.3206 36.5172 29.3206Z" fill="#DEE2E6"/>
<path d="M38.7877 100.491C38.768 100.43 38.7411 100.377 38.7087 100.334C38.6762 100.29 38.6387 100.258 38.5983 100.238C38.558 100.217 38.5156 100.21 38.4735 100.217C38.4314 100.223 38.3905 100.242 38.3532 100.274L37.0503 101.376L36.6041 60.2683H36.5683L35.8892 119.544H37.2475L37.0629 102.534L38.6529 101.189C38.6903 101.157 38.7234 101.114 38.7504 101.062C38.7775 101.01 38.7978 100.949 38.8103 100.884C38.8228 100.82 38.8273 100.751 38.8234 100.684C38.8195 100.616 38.8074 100.551 38.7877 100.491Z" fill="#B9B9B9"/>
<path d="M95.6752 82.6998V77.1334C95.6752 76.4074 95.4957 75.7112 95.1762 75.1978C94.8567 74.6845 94.4234 74.3961 93.9716 74.3961H85.2295C84.7777 74.3961 84.3444 74.6845 84.0249 75.1978C83.7054 75.7112 83.5259 76.4074 83.5259 77.1334V82.6998H95.6752Z" fill="#F2F2F2"/>
<path d="M83.5259 83.5739V92.1995C83.5259 92.9255 83.7054 93.6217 84.0249 94.1351C84.3444 94.6485 84.7777 94.9369 85.2295 94.9369H93.9716C94.4234 94.9369 94.8567 94.6485 95.1762 94.1351C95.4957 93.6217 95.6752 92.9255 95.6752 92.1995V83.5739H83.5259Z" fill="#F2F2F2"/>
<path d="M136.899 67.4211L110.653 51.962C109.057 51.0225 107.306 51.0225 105.711 51.962L79.465 67.4211C78.9118 67.7469 78.3179 67.8534 77.7336 67.7314C77.1494 67.6095 76.592 67.2628 76.109 66.7207C75.626 66.1786 75.2316 65.4572 74.9592 64.6177C74.6869 63.7783 74.5447 62.8456 74.5447 61.899C74.5447 60.6943 74.7749 59.5186 75.2043 58.531C75.6336 57.5434 76.2413 56.7914 76.9453 56.3768L105.711 39.4336C107.306 38.494 109.057 38.494 110.653 39.4336L139.419 56.3768C140.123 56.7914 140.73 57.5434 141.16 58.531C141.589 59.5186 141.819 60.6943 141.819 61.899C141.819 62.8456 141.677 63.7783 141.405 64.6177C141.132 65.4572 140.738 66.1786 140.255 66.7207C139.772 67.2628 139.215 67.6095 138.63 67.7314C138.046 67.8534 137.452 67.7469 136.899 67.4211Z" fill="#6C757D"/>
<path d="M112.42 119.943H105.405C104.661 119.942 103.947 119.466 103.421 118.62C102.894 117.775 102.598 116.628 102.597 115.432V88.1357C102.598 86.9396 102.894 85.7928 103.421 84.947C103.947 84.1012 104.661 83.6254 105.405 83.6241H112.42C113.164 83.6254 113.878 84.1012 114.404 84.947C114.931 85.7928 115.227 86.9396 115.228 88.1357V115.432C115.227 116.628 114.931 117.775 114.404 118.62C113.878 119.466 113.164 119.942 112.42 119.943ZM105.405 84.3975C104.788 84.3986 104.197 84.7929 103.761 85.4937C103.325 86.1945 103.079 87.1447 103.079 88.1357V115.432C103.079 116.423 103.325 117.373 103.761 118.074C104.197 118.774 104.788 119.169 105.405 119.17H112.42C113.037 119.169 113.628 118.774 114.064 118.074C114.5 117.373 114.746 116.423 114.746 115.432V88.1357C114.746 87.1447 114.5 86.1945 114.064 85.4937C113.628 84.7929 113.037 84.3986 112.42 84.3975H105.405Z" fill="#DEE2E6"/>
<path d="M113.1 25.57C112.987 23.5407 112.406 21.6528 111.47 20.2778C110.534 18.9028 109.312 18.1403 108.044 18.1403C106.776 18.1403 105.554 18.9028 104.618 20.2778C103.683 21.6528 103.101 23.5407 102.988 25.57H113.1Z" fill="#F1F6FA"/>
<path d="M102.969 26.4441C102.992 28.5819 103.537 30.6195 104.487 32.1181C105.436 33.6167 106.713 34.4564 108.044 34.4564C109.375 34.4564 110.652 33.6167 111.601 32.1181C112.551 30.6195 113.096 28.5819 113.119 26.4441H102.969Z" fill="#F1F6FA"/>
<path d="M112.306 35.4594H103.783C103.377 35.4594 102.987 35.2003 102.7 34.739C102.413 34.2777 102.252 33.652 102.252 32.9997C102.252 32.3473 102.413 31.7216 102.7 31.2603C102.987 30.799 103.377 30.5399 103.783 30.5399H112.306C112.712 30.5399 113.101 30.799 113.388 31.2603C113.675 31.7216 113.836 32.3473 113.836 32.9997C113.836 33.652 113.675 34.2777 113.388 34.739C113.101 35.2003 112.712 35.4594 112.306 35.4594Z" fill="#CCCCCC"/>
<path d="M83.6165 92.1521C83.2531 92.1521 82.9045 92.3841 82.6475 92.7971C82.3905 93.21 82.2461 93.7701 82.2461 94.3541C82.2461 94.9381 82.3905 95.4982 82.6475 95.9111C82.9045 96.324 83.2531 96.5561 83.6165 96.5561H95.5845C95.948 96.5561 96.2965 96.324 96.5536 95.9111C96.8106 95.4982 96.9549 94.9381 96.9549 94.3541C96.9549 93.7701 96.8106 93.21 96.5536 92.7971C96.2965 92.3841 95.948 92.1521 95.5845 92.1521H83.6165Z" fill="#CCCCCC"/>
<path d="M120.79 83.5739V92.1995C120.79 92.9255 120.969 93.6217 121.289 94.1351C121.608 94.6485 122.042 94.9369 122.493 94.9369H131.235C131.687 94.9369 132.121 94.6485 132.44 94.1351C132.76 93.6217 132.939 92.9255 132.939 92.1995V83.5739H120.79Z" fill="#F1F6FA"/>
<path d="M132.939 82.6998V77.1334C132.939 76.4074 132.76 75.7112 132.44 75.1978C132.121 74.6845 131.687 74.3961 131.235 74.3961H122.493C122.042 74.3961 121.608 74.6845 121.289 75.1978C120.969 75.7112 120.79 76.4074 120.79 77.1334V82.6998H132.939Z" fill="#F1F6FA"/>
<path d="M113.083 102.658C113.634 102.658 114.08 101.94 114.08 101.055C114.08 100.17 113.634 99.4529 113.083 99.4529C112.532 99.4529 112.086 100.17 112.086 101.055C112.086 101.94 112.532 102.658 113.083 102.658Z" fill="#B9B9B9"/>
<path d="M79.5827 102.087L75.6543 92.2683L75.8361 92.0804L79.5637 101.397L82.6013 92.0938L82.7925 92.2549L79.5827 102.087Z" fill="#6C757D"/>
<path d="M82.7815 89.0497H73.4363V88.7893C73.4363 88.3676 73.3846 87.95 73.2842 87.5604C73.1837 87.1707 73.0365 86.8167 72.8509 86.5185C72.6653 86.2203 72.445 85.9838 72.2025 85.8224C71.96 85.661 71.7001 85.5779 71.4376 85.5779C71.1752 85.5779 70.9153 85.661 70.6728 85.8224C70.4303 85.9838 70.21 86.2203 70.0244 86.5185C69.8388 86.8167 69.6915 87.1707 69.5911 87.5604C69.4907 87.95 69.439 88.3676 69.439 88.7893V89.0497H68.5207C67.9906 89.0497 67.4822 89.3881 67.1074 89.9903C66.7326 90.5926 66.522 91.4094 66.522 92.2611C66.522 93.1128 66.7326 93.9297 67.1074 94.5319C67.4822 95.1342 67.9906 95.4725 68.5207 95.4725H69.439V119.741C73.4215 119.613 69.4101 119.871 73.4363 119.741V95.4725H82.7815C83.3116 95.4725 83.82 95.1342 84.1948 94.5319C84.5696 93.9297 84.7802 93.1128 84.7802 92.2611C84.7802 91.4094 84.5696 90.5926 84.1948 89.9903C83.82 89.3881 83.3116 89.0497 82.7815 89.0497Z" fill="#6C757D"/>
<path d="M71.3837 93.3894C71.8014 93.3894 72.14 92.8454 72.14 92.1743C72.14 91.5032 71.8014 90.9592 71.3837 90.9592C70.966 90.9592 70.6274 91.5032 70.6274 92.1743C70.6274 92.8454 70.966 93.3894 71.3837 93.3894Z" fill="#444443"/>
<path d="M83.969 108.273H75.3276C74.9194 108.273 74.5281 108.012 74.2395 107.548C73.9509 107.084 73.7885 106.456 73.7881 105.8V101.289C73.7886 100.633 73.9509 100.004 74.2395 99.5407C74.5281 99.077 74.9194 98.8161 75.3276 98.8154H83.969C84.3771 98.8161 84.7684 99.077 85.057 99.5407C85.3456 100.004 85.508 100.633 85.5085 101.289V105.8C85.508 106.456 85.3457 107.084 85.0571 107.548C84.7685 108.012 84.3771 108.273 83.969 108.273Z" fill="white"/>
<path d="M82.3492 102.416H76.8393C76.5112 102.416 76.2451 102.844 76.2451 103.371C76.2451 103.898 76.5112 104.326 76.8393 104.326H82.3492C82.6774 104.326 82.9434 103.898 82.9434 103.371C82.9434 102.844 82.6774 102.416 82.3492 102.416Z" fill="#0077B6"/>
<path d="M159.876 120H0.124039C0.0911419 120 0.0595927 119.979 0.0363307 119.942C0.0130686 119.904 0 119.854 0 119.801C0 119.748 0.0130686 119.697 0.0363307 119.66C0.0595927 119.622 0.0911419 119.601 0.124039 119.601H159.876C159.909 119.601 159.94 119.622 159.964 119.66C159.987 119.697 160 119.748 160 119.801C160 119.854 159.987 119.904 159.964 119.942C159.94 119.979 159.909 120 159.876 120Z" fill="#B9B9B9"/>
<path d="M132.758 96.8138H120.79C120.384 96.8138 119.994 96.5547 119.707 96.0934C119.42 95.6321 119.259 95.0065 119.259 94.3541C119.259 93.7017 119.42 93.0761 119.707 92.6148C119.994 92.1535 120.384 91.8943 120.79 91.8943H132.758C133.164 91.8943 133.553 92.1535 133.84 92.6148C134.127 93.0761 134.289 93.7017 134.289 94.3541C134.289 95.0065 134.127 95.6321 133.84 96.0934C133.553 96.5547 133.164 96.8138 132.758 96.8138Z" fill="#CCCCCC"/>
<path d="M148.834 39.6923C148.834 39.6923 145.932 39.3615 140.009 38.9188C132.949 19.0675 110.004 14.2825 110.004 3.54048e-05V0H138.206C141.028 0 143.734 1.80105 145.729 5.00694C147.725 8.21283 148.846 12.5609 148.846 17.0948L148.834 39.6923Z" fill="#CED4DA"/>
<path d="M124.374 5.21901C124.31 5.21912 124.249 5.2599 124.204 5.3324C124.159 5.4049 124.134 5.5032 124.134 5.60572V18.5169C124.134 18.6194 124.159 18.7177 124.204 18.7902C124.249 18.8627 124.31 18.9035 124.374 18.9036H129.38C129.443 18.9035 129.505 18.8627 129.55 18.7902C129.595 18.7177 129.62 18.6194 129.62 18.5169V5.60572C129.62 5.5032 129.595 5.4049 129.55 5.3324C129.505 5.2599 129.443 5.21912 129.38 5.21901H124.374Z" fill="#F1F6FA"/>
<path d="M138.276 38.6511L112.03 13.2331C110.435 12.2935 108.684 12.2935 107.088 13.2331L80.8422 38.6511C80.289 38.9769 79.6951 39.0833 79.1108 38.9614C78.5266 38.8395 77.9692 38.4927 77.4862 37.9506C77.0032 37.4085 76.6088 36.6871 76.3364 35.8477C76.0641 35.0082 75.9219 34.0756 75.9219 33.1289C75.9219 31.9242 76.1521 30.7486 76.5815 29.761C77.0108 28.7734 77.6185 28.0214 78.3225 27.6068L107.088 0.704693C108.684 -0.234898 110.435 -0.234898 112.03 0.704693L140.796 27.6067C141.5 28.0214 142.108 28.7733 142.537 29.761C142.966 30.7486 143.196 31.9242 143.196 33.1289C143.196 34.0756 143.054 35.0082 142.782 35.8477C142.51 36.6871 142.115 37.4085 141.632 37.9506C141.149 38.4927 140.592 38.8394 140.008 38.9614C139.423 39.0833 138.829 38.9769 138.276 38.6511Z" fill="#CED4DA"/>
</g>
<defs>
<clipPath id="clip0_32_110">
<rect width="160" height="120" fill="white"/>
</clipPath>
</defs>
</svg>
