<svg width="158" height="34" viewBox="0 0 158 34" fill="none" xmlns="http://www.w3.org/2000/svg">
<path d="M0 1H30V32.8298L14.5588 29.5532L6.39706 34L0 1Z" fill="#495057"/>
<path d="M12.3525 5.21278L29.1172 2.17023V31.6596L15.6614 28.149L12.3525 5.21278Z" fill="white"/>
<path d="M43.56 6.544H47.944V16.176L57.736 16.208V6.544H62.152V30H57.736V20.112L47.944 20.048V30H43.56V6.544ZM79.8875 24.688H71.4075L69.5515 30H65.0075L73.4555 6.544H77.7435H77.8715L86.3195 30H81.6795L79.8875 24.688ZM78.6075 21.04L75.6635 12.464L72.6875 21.04H78.6075ZM87.6798 6.544H92.0638V21.296C92.0638 22.0853 92.1918 22.7893 92.4478 23.408C92.7038 24.0267 93.0664 24.5493 93.5358 24.976C94.0051 25.3813 94.5491 25.6907 95.1678 25.904C95.8078 26.1173 96.4904 26.224 97.2158 26.224C97.9411 26.224 98.6131 26.1173 99.2318 25.904C99.8718 25.6693 100.426 25.3387 100.896 24.912C101.365 24.4853 101.738 23.9733 102.016 23.376C102.293 22.7573 102.432 22.064 102.432 21.296V6.544H106.784V21.424C106.784 22.8533 106.528 24.1227 106.016 25.232C105.525 26.3413 104.842 27.28 103.968 28.048C103.093 28.816 102.08 29.4027 100.928 29.808C99.7758 30.192 98.5384 30.384 97.2158 30.384C95.9358 30.384 94.7198 30.192 93.5677 29.808C92.4158 29.4027 91.4024 28.816 90.5278 28.048C89.6531 27.28 88.9598 26.3413 88.4478 25.232C87.9358 24.1227 87.6798 22.8533 87.6798 21.424V6.544ZM126.244 10.704L115.204 25.808H126.084V30H110.404L110.372 25.808L121.38 10.736L110.404 10.768V6.544H126.244V10.704ZM130.091 30V6.544H134.475V30H130.091ZM155.144 10.672H148.552V30H144.168V10.672H137.544V6.544H155.144V10.672Z" fill="#495057"/>
</svg>
