<svg width="20" height="22" viewBox="0 0 20 22" fill="none" xmlns="http://www.w3.org/2000/svg">
<path d="M16.721 11.6262C16.7096 9.82294 17.5937 8.46385 19.3791 7.46173C18.3805 6.13967 16.8698 5.41253 14.8784 5.27239C12.9928 5.1349 10.9299 6.28774 10.1745 6.28774C9.37625 6.28774 7.55079 5.31999 6.11445 5.31999C3.15021 5.36229 0 7.50403 0 11.8616C0 13.1492 0.254649 14.4792 0.763948 15.8489C1.44492 17.6522 3.89986 22.0705 6.46066 21.9991C7.79971 21.9701 8.74678 21.1213 10.4893 21.1213C12.1803 21.1213 13.0558 21.9991 14.5494 21.9991C17.133 21.9648 19.3534 17.9483 20 16.1398C16.535 14.63 16.721 11.7188 16.721 11.6262ZM13.7139 3.56164C15.1645 1.96988 15.0329 0.520893 14.99 0C13.7082 0.0687473 12.226 0.806459 11.382 1.71339C10.4521 2.68643 9.90558 3.88951 10.0229 5.24595C11.4077 5.34378 12.6724 4.68539 13.7139 3.56164Z" fill="white"/>
</svg>
