<svg width="11" height="5" viewBox="0 0 11 5" fill="none" xmlns="http://www.w3.org/2000/svg">
<path d="M4.59049 4.856C4.63636 4.90041 4.69774 4.93672 4.76935 4.96181C4.84095 4.98689 4.92063 5 5.00152 5C5.08241 5 5.16209 4.98689 5.23369 4.96181C5.3053 4.93672 5.36668 4.90041 5.41255 4.856L9.9129 0.522964C9.965 0.472987 9.99554 0.414449 10.0012 0.353711C10.0069 0.292973 9.98752 0.232358 9.94515 0.178452C9.90278 0.124546 9.83906 0.0794107 9.76091 0.0479494C9.68276 0.0164882 9.59317 -9.54414e-05 9.50187 4.13189e-07H0.501167C0.410082 0.000251199 0.320822 0.0170481 0.242987 0.0485847C0.165152 0.0801213 0.101687 0.125204 0.0594169 0.178986C0.0171465 0.232767 -0.00232967 0.293212 0.00308273 0.35382C0.00849514 0.414428 0.0385914 0.472905 0.0901349 0.522964L4.59049 4.856Z" fill="#6C757D"/>
</svg>
