<svg width="17" height="17" viewBox="0 0 17 17" fill="none" xmlns="http://www.w3.org/2000/svg">
<path d="M1 2.66626H4.33333M16 2.66626H7.66667M1 8.49959H11M16 8.49959H14.3333M1 14.3329H2.66667M16 14.3329H6" stroke="#6C757D" stroke-width="2" stroke-linecap="round"/>
<path d="M5.99919 4.33333C6.91966 4.33333 7.66585 3.58714 7.66585 2.66667C7.66585 1.74619 6.91966 1 5.99919 1C5.07871 1 4.33252 1.74619 4.33252 2.66667C4.33252 3.58714 5.07871 4.33333 5.99919 4.33333Z" stroke="#6C757D" stroke-width="2" stroke-linecap="round"/>
<path d="M12.6679 10.1671C13.5884 10.1671 14.3346 9.42088 14.3346 8.50041C14.3346 7.57993 13.5884 6.83374 12.6679 6.83374C11.7474 6.83374 11.0012 7.57993 11.0012 8.50041C11.0012 9.42088 11.7474 10.1671 12.6679 10.1671Z" stroke="#6C757D" stroke-width="2" stroke-linecap="round"/>
<path d="M4.33293 15.9999C5.2534 15.9999 5.99959 15.2537 5.99959 14.3332C5.99959 13.4128 5.2534 12.6666 4.33293 12.6666C3.41245 12.6666 2.66626 13.4128 2.66626 14.3332C2.66626 15.2537 3.41245 15.9999 4.33293 15.9999Z" stroke="#6C757D" stroke-width="2" stroke-linecap="round"/>
</svg>
