<svg width="21" height="23" viewBox="0 0 21 23" fill="none" xmlns="http://www.w3.org/2000/svg">
<path d="M0.6875 1.47479V20.7737C0.687627 20.8155 0.699853 20.8564 0.722646 20.8912C0.745439 20.926 0.777784 20.9532 0.815625 20.9693C0.853466 20.9854 0.895118 20.9897 0.935359 20.9817C0.9756 20.9738 1.01264 20.9538 1.04183 20.9244L10.8799 11.1247L1.04183 1.32404C1.01264 1.29464 0.9756 1.2747 0.935359 1.26672C0.895118 1.25873 0.853466 1.26307 0.815625 1.27917C0.777784 1.29527 0.745439 1.32242 0.722646 1.35722C0.699853 1.39202 0.687627 1.43292 0.6875 1.47479Z" fill="white"/>
<path d="M15.0052 7.09803L2.6695 0.15633L2.66181 0.151911C2.44931 0.0340552 2.24738 0.327712 2.42142 0.498603L12.0912 9.94277L15.0052 7.09803Z" fill="white"/>
<path d="M2.42199 21.7509C2.24699 21.9218 2.44891 22.2155 2.66237 22.0976L2.67007 22.0932L15.0048 15.1515L12.0908 12.3058L2.42199 21.7509Z" fill="white"/>
<path d="M19.9847 9.89709L16.54 7.95935L13.301 11.1248L16.54 14.2887L19.9847 12.3524C20.9217 11.8235 20.9217 10.426 19.9847 9.89709Z" fill="white"/>
</svg>
