<svg width="18" height="15" viewBox="0 0 18 15" fill="none" xmlns="http://www.w3.org/2000/svg">
<path d="M13.1456 1.2C13.6136 1.19963 14.0769 1.28648 14.5085 1.45545C14.94 1.62442 15.3311 1.87211 15.6587 2.184C16.3339 2.82383 16.7123 3.68589 16.7123 4.584C16.7123 5.48211 16.3339 6.34417 15.6587 6.984L9 13.278L2.34129 6.984C1.66615 6.34417 1.28771 5.48211 1.28771 4.584C1.28771 3.68589 1.66615 2.82383 2.34129 2.184C2.66914 1.87233 3.06023 1.62477 3.49172 1.45578C3.92321 1.28678 4.38645 1.19974 4.85437 1.19974C5.3223 1.19974 5.78553 1.28678 6.21702 1.45578C6.64851 1.62477 7.03961 1.87233 7.36746 2.184L9 3.744L10.6261 2.196C10.9528 1.88039 11.3443 1.62952 11.7772 1.45838C12.2101 1.28725 12.6755 1.19937 13.1456 1.2ZM13.1456 1.60971e-06C12.5065 -0.000504023 11.8737 0.118115 11.2843 0.348903C10.695 0.579691 10.1609 0.918003 9.71343 1.344L9 2.016L8.28657 1.344C7.83855 0.918771 7.30434 0.581047 6.71508 0.350516C6.12581 0.119985 5.49329 0.00125846 4.85437 0.00125846C4.21546 0.00125846 3.58293 0.119985 2.99367 0.350516C2.40441 0.581047 1.8702 0.918771 1.42218 1.344C0.510705 2.21018 0 3.37582 0 4.59C0 5.80419 0.510705 6.96983 1.42218 7.836L9 15L16.5778 7.836C17.4893 6.96983 18 5.80419 18 4.59C18 3.37582 17.4893 2.21018 16.5778 1.344C16.1299 0.918544 15.5958 0.580587 15.0065 0.349838C14.4172 0.119089 13.7846 0.000165659 13.1456 1.60971e-06Z" fill="#0096C7"/>
</svg>
