<svg width="23" height="23" viewBox="0 0 23 23" fill="none" xmlns="http://www.w3.org/2000/svg">
<path fill-rule="evenodd" clip-rule="evenodd" d="M7.32877 0.151693C8.50177 0.0976933 8.87577 0.0856934 11.8638 0.0856934C14.8518 0.0856934 15.2258 0.0986933 16.3978 0.151693C17.5698 0.204693 18.3698 0.391693 19.0698 0.662693C19.8028 0.939693 20.4678 1.37269 21.0178 1.93269C21.5778 2.48169 22.0098 3.14569 22.2858 3.87969C22.5578 4.57969 22.7438 5.37969 22.7978 6.54969C22.8518 7.72469 22.8638 8.09869 22.8638 11.0857C22.8638 14.0737 22.8508 14.4477 22.7978 15.6207C22.7448 16.7907 22.5578 17.5907 22.2858 18.2907C22.0098 19.0248 21.577 19.6899 21.0178 20.2397C20.4678 20.7997 19.8028 21.2317 19.0698 21.5077C18.3698 21.7797 17.5698 21.9657 16.3998 22.0197C15.2258 22.0737 14.8518 22.0857 11.8638 22.0857C8.87577 22.0857 8.50177 22.0727 7.32877 22.0197C6.15877 21.9667 5.35877 21.7797 4.65877 21.5077C3.92469 21.2317 3.25959 20.7989 2.70977 20.2397C2.15015 19.6904 1.71708 19.0256 1.44077 18.2917C1.16977 17.5917 0.98377 16.7917 0.92977 15.6217C0.87577 14.4467 0.86377 14.0727 0.86377 11.0857C0.86377 8.09769 0.87677 7.72369 0.92977 6.55169C0.98277 5.37969 1.16977 4.57969 1.44077 3.87969C1.71749 3.14577 2.15089 2.48101 2.71077 1.93169C3.25981 1.37219 3.92424 0.939137 4.65777 0.662693C5.35777 0.391693 6.15777 0.205693 7.32777 0.151693H7.32877ZM16.3088 2.13169C15.1488 2.07869 14.8008 2.06769 11.8638 2.06769C8.92677 2.06769 8.57877 2.07869 7.41877 2.13169C6.34577 2.18069 5.76377 2.35969 5.37577 2.51069C4.86277 2.71069 4.49577 2.94769 4.11077 3.33269C3.74581 3.68775 3.46495 4.11998 3.28877 4.59769C3.13777 4.98569 2.95877 5.56769 2.90977 6.64069C2.85677 7.80069 2.84577 8.14869 2.84577 11.0857C2.84577 14.0227 2.85677 14.3707 2.90977 15.5307C2.95877 16.6037 3.13777 17.1857 3.28877 17.5737C3.46477 18.0507 3.74577 18.4837 4.11077 18.8387C4.46577 19.2037 4.89877 19.4847 5.37577 19.6607C5.76377 19.8117 6.34577 19.9907 7.41877 20.0397C8.57877 20.0927 8.92577 20.1037 11.8638 20.1037C14.8018 20.1037 15.1488 20.0927 16.3088 20.0397C17.3818 19.9907 17.9638 19.8117 18.3518 19.6607C18.8648 19.4607 19.2318 19.2237 19.6168 18.8387C19.9818 18.4837 20.2628 18.0507 20.4388 17.5737C20.5898 17.1857 20.7688 16.6037 20.8178 15.5307C20.8708 14.3707 20.8818 14.0227 20.8818 11.0857C20.8818 8.14869 20.8708 7.80069 20.8178 6.64069C20.7688 5.56769 20.5898 4.98569 20.4388 4.59769C20.2388 4.08469 20.0018 3.71769 19.6168 3.33269C19.2617 2.96776 18.8295 2.6869 18.3518 2.51069C17.9638 2.35969 17.3818 2.18069 16.3088 2.13169ZM10.4588 14.4767C11.2434 14.8033 12.1171 14.8474 12.9307 14.6014C13.7442 14.3554 14.4472 13.8346 14.9194 13.1279C15.3916 12.4213 15.6038 11.5726 15.5198 10.7268C15.4358 9.88103 15.0608 9.09067 14.4588 8.49069C14.075 8.10717 13.611 7.81351 13.1001 7.63084C12.5892 7.44817 12.0442 7.38105 11.5043 7.43431C10.9643 7.48756 10.4429 7.65987 9.97757 7.93882C9.51222 8.21778 9.11451 8.59644 8.81307 9.04754C8.51163 9.49865 8.31396 10.011 8.23429 10.5477C8.15461 11.0843 8.19492 11.632 8.35231 12.1512C8.5097 12.6704 8.78025 13.1483 9.14449 13.5504C9.50873 13.9525 9.95759 14.2689 10.4588 14.4767ZM7.86577 7.08769C8.39079 6.56267 9.01409 6.1462 9.70007 5.86205C10.386 5.57791 11.1213 5.43167 11.8638 5.43167C12.6063 5.43167 13.3415 5.57791 14.0275 5.86205C14.7134 6.1462 15.3367 6.56267 15.8618 7.08769C16.3868 7.61272 16.8033 8.23601 17.0874 8.92199C17.3715 9.60797 17.5178 10.3432 17.5178 11.0857C17.5178 11.8282 17.3715 12.5634 17.0874 13.2494C16.8033 13.9354 16.3868 14.5587 15.8618 15.0837C14.8014 16.144 13.3633 16.7397 11.8638 16.7397C10.3642 16.7397 8.9261 16.144 7.86577 15.0837C6.80543 14.0234 6.20974 12.5852 6.20974 11.0857C6.20974 9.58615 6.80543 8.14803 7.86577 7.08769ZM18.7718 6.27369C18.9019 6.15096 19.006 6.00337 19.0781 5.83967C19.1501 5.67596 19.1886 5.49946 19.1912 5.32062C19.1938 5.14178 19.1605 4.96424 19.0933 4.7985C19.026 4.63277 18.9262 4.4822 18.7997 4.35573C18.6733 4.22926 18.5227 4.12945 18.357 4.06221C18.1912 3.99497 18.0137 3.96167 17.8348 3.96428C17.656 3.96688 17.4795 4.00535 17.3158 4.07739C17.1521 4.14943 17.0045 4.25359 16.8818 4.38369C16.6431 4.63672 16.5124 4.97281 16.5175 5.32062C16.5225 5.66843 16.663 6.00057 16.9089 6.24654C17.1549 6.4925 17.487 6.63292 17.8348 6.63799C18.1826 6.64306 18.5187 6.51238 18.7718 6.27369Z" fill="white"/>
</svg>
