<svg width="16" height="16" viewBox="0 0 16 16" fill="none" xmlns="http://www.w3.org/2000/svg">
<path d="M1.19589 4.736L5.09792 0.835998C5.25634 0.677665 5.47312 0.585999 5.6899 0.585999H11.2261C11.4429 0.585999 11.6597 0.677665 11.8098 0.827665L15.7201 4.736C15.8702 4.886 15.9619 5.10267 15.9619 5.31933V10.8443C15.9619 11.0693 15.8702 11.2777 15.7201 11.436L11.8181 15.336C11.6597 15.4943 11.4429 15.586 11.2261 15.586H5.69824C5.47312 15.586 5.26468 15.4943 5.10626 15.3443L1.20423 11.4443C1.12658 11.3667 1.0652 11.2744 1.02368 11.1729C0.982163 11.0713 0.961343 10.9624 0.962439 10.8527V5.31933C0.954101 5.10267 1.04582 4.886 1.19589 4.736ZM2.62164 10.5027L6.04008 13.9193H10.8759L14.2944 10.5027V5.66933L10.8759 2.25267H6.04008L2.62164 5.66933V10.5027Z" fill="#495057"/>
<path d="M8.45798 12.2527C7.9975 12.2527 7.62421 11.8796 7.62421 11.4193C7.62421 10.9591 7.9975 10.586 8.45798 10.586C8.91846 10.586 9.29175 10.9591 9.29175 11.4193C9.29175 11.8796 8.91846 12.2527 8.45798 12.2527Z" fill="#495057"/>
<path d="M8.45798 3.91931C8.91655 3.91931 9.29175 4.29431 9.29175 4.75264V8.91931C9.29175 9.37765 8.91655 9.75265 8.45798 9.75265C7.99941 9.75265 7.62421 9.37765 7.62421 8.91931V4.75264C7.62421 4.29431 7.99941 3.91931 8.45798 3.91931Z" fill="#495057"/>
</svg>
