<svg width="19" height="16" viewBox="0 0 19 16" fill="none" xmlns="http://www.w3.org/2000/svg">
<path d="M13.8759 1.28C14.3699 1.27961 14.859 1.37224 15.3145 1.55248C15.77 1.73271 16.1828 1.99691 16.5286 2.3296C17.2413 3.01208 17.6408 3.93162 17.6408 4.8896C17.6408 5.84758 17.2413 6.76712 16.5286 7.4496L9.5 14.1632L2.47136 7.4496C1.75871 6.76712 1.35925 5.84758 1.35925 4.8896C1.35925 3.93162 1.75871 3.01208 2.47136 2.3296C2.81743 1.99715 3.23025 1.73309 3.68571 1.55283C4.14117 1.37257 4.63014 1.27973 5.12406 1.27973C5.61798 1.27973 6.10695 1.37257 6.56241 1.55283C7.01787 1.73309 7.43069 1.99715 7.77676 2.3296L9.5 3.9936L11.2165 2.3424C11.5613 2.00575 11.9745 1.73815 12.4315 1.55561C12.8884 1.37307 13.3797 1.27933 13.8759 1.28ZM13.8759 1.71703e-06C13.2013 -0.000537624 12.5334 0.125989 11.9113 0.372163C11.2891 0.618337 10.7254 0.979203 10.2531 1.4336L9.5 2.1504L8.74693 1.4336C8.27402 0.980022 7.71014 0.619783 7.08814 0.373884C6.46614 0.127984 5.79847 0.00134235 5.12406 0.00134235C4.44965 0.00134235 3.78198 0.127984 3.15998 0.373884C2.53798 0.619783 1.9741 0.980022 1.50119 1.4336C0.539077 2.35752 0 3.60087 0 4.896C0 6.19113 0.539077 7.43448 1.50119 8.3584L9.5 16L17.4988 8.3584C18.4609 7.43448 19 6.19113 19 4.896C19 3.60087 18.4609 2.35752 17.4988 1.4336C17.026 0.97978 16.4622 0.619293 15.8402 0.373161C15.2182 0.127029 14.5505 0.000176703 13.8759 1.71703e-06Z" fill="#212529"/>
</svg>
