<svg width="52" height="52" viewBox="0 0 52 52" fill="none" xmlns="http://www.w3.org/2000/svg">
<rect width="52" height="52" fill="#E35053"/>
<path d="M30.2939 28.5786H29.3905L29.0703 28.2699C30.191 26.9663 30.8656 25.2739 30.8656 23.4328C30.8656 19.3276 27.538 16 23.4328 16C19.3276 16 16 19.3276 16 23.4328C16 27.538 19.3276 30.8656 23.4328 30.8656C25.2739 30.8656 26.9663 30.191 28.2699 29.0703L28.5786 29.3905V30.2939L34.2962 36L36 34.2962L30.2939 28.5786ZM23.4328 28.5786C20.5855 28.5786 18.287 26.2802 18.287 23.4328C18.287 20.5855 20.5855 18.287 23.4328 18.287C26.2802 18.287 28.5786 20.5855 28.5786 23.4328C28.5786 26.2802 26.2802 28.5786 23.4328 28.5786Z" fill="white"/>
</svg>
