<svg width="17" height="15" viewBox="0 0 17 15" fill="none" xmlns="http://www.w3.org/2000/svg">
<path d="M9.35206 3.79227V0.936364C9.35206 0.688025 9.44163 0.449857 9.60107 0.274255C9.76051 0.0986523 9.97675 0 10.2022 0C10.4253 0.00103433 10.639 0.0985577 10.7973 0.271546L16.7485 6.82609C16.8282 6.91314 16.8915 7.0167 16.9346 7.13081C16.9778 7.24491 17 7.3673 17 7.49091C17 7.61452 16.9778 7.73691 16.9346 7.85102C16.8915 7.96512 16.8282 8.06868 16.7485 8.15573L10.7973 14.7103C10.678 14.8391 10.5268 14.9264 10.3627 14.9611C10.1986 14.9959 10.0288 14.9766 9.87458 14.9056C9.72036 14.8347 9.58855 14.7153 9.49562 14.5623C9.40269 14.4093 9.35275 14.2295 9.35206 14.0455V11.1427H8.62942C7.28622 11.1207 5.95475 11.4208 4.72743 12.0223C3.50011 12.6238 2.40633 13.5123 1.52202 14.626C1.41545 14.7823 1.26715 14.8979 1.09792 14.9567C0.928692 15.0154 0.747007 15.0144 0.578331 14.9537C0.406677 14.8899 0.258015 14.7674 0.154022 14.604C0.0500278 14.4406 -0.00386047 14.2449 0.00021553 14.0455C0.00021553 5.50582 6.86957 4.04509 9.35206 3.79227ZM8.62942 9.25128C9.19805 9.24932 9.76614 9.28999 10.3298 9.373C10.531 9.40664 10.7147 9.51869 10.8473 9.68881C10.9799 9.85892 11.0527 10.0758 11.0524 10.3V11.7888L14.9462 7.49091L11.0524 3.193V4.68182C11.0524 4.93016 10.9628 5.16833 10.8034 5.34393C10.644 5.51953 10.4277 5.61818 10.2022 5.61818C9.42858 5.61818 3.30737 5.80546 1.98111 11.639C3.90615 10.0758 6.23775 9.23841 8.62942 9.25128Z" fill="#495057"/>
</svg>
