<svg width="20" height="20" viewBox="0 0 20 20" fill="none" xmlns="http://www.w3.org/2000/svg">
<path d="M6 15.3333H5.33333C5.33333 15.5101 5.40357 15.6797 5.5286 15.8047C5.65362 15.9298 5.82319 16 6 16V15.3333ZM14 15.3333V16C14.1768 16 14.3464 15.9298 14.4714 15.8047C14.5964 15.6797 14.6667 15.5101 14.6667 15.3333H14ZM6 16H14V14.6667H6V16ZM14.6667 15.3333V12.6667H13.3333V15.3333H14.6667ZM5.33333 12.6667V15.3333H6.66667V12.6667H5.33333ZM10 8C8.76232 8 7.57534 8.49167 6.70017 9.36684C5.825 10.242 5.33333 11.429 5.33333 12.6667H6.66667C6.66667 11.7826 7.01786 10.9348 7.64298 10.3096C8.2681 9.68452 9.11594 9.33333 10 9.33333V8ZM14.6667 12.6667C14.6667 11.429 14.175 10.242 13.2998 9.36684C12.4247 8.49167 11.2377 8 10 8V9.33333C10.8841 9.33333 11.7319 9.68452 12.357 10.3096C12.9821 10.9348 13.3333 11.7826 13.3333 12.6667H14.6667ZM18.6667 15.3333C18.6667 15.66 18.5147 16.0267 18.1253 16.4213C17.7333 16.82 17.132 17.208 16.3373 17.5493C14.7493 18.2293 12.5093 18.6667 10 18.6667V20C12.6453 20 15.072 19.5413 16.8627 18.7733C17.756 18.3907 18.5227 17.9173 19.0747 17.3587C19.6293 16.796 20 16.1107 20 15.3333H18.6667ZM10 18.6667C7.49067 18.6667 5.25067 18.2293 3.66267 17.5493C2.868 17.208 2.26667 16.82 1.87467 16.4213C1.48533 16.0267 1.33333 15.6613 1.33333 15.3333H0C0 16.1107 0.370667 16.796 0.925333 17.3587C1.47733 17.9187 2.244 18.3907 3.13867 18.7747C4.92667 19.5413 7.35333 20 10 20V18.6667ZM1.33333 15.3333C1.33333 15.0107 1.48 14.6493 1.85867 14.26C2.24 13.868 2.82533 13.484 3.6 13.144L3.06667 11.9227C2.192 12.3053 1.44267 12.776 0.904 13.3307C0.36 13.888 0 14.5667 0 15.3333H1.33333ZM16.4 13.144C17.1747 13.484 17.76 13.868 18.14 14.26C18.5187 14.6493 18.6667 15.0107 18.6667 15.3333H20C20 14.5667 19.64 13.888 19.096 13.3307C18.5573 12.776 17.808 12.3053 16.9333 11.9227L16.4 13.144ZM10 5.33333C9.46957 5.33333 8.96086 5.12262 8.58579 4.74755C8.21071 4.37247 8 3.86377 8 3.33333H6.66667C6.66667 4.21739 7.01786 5.06523 7.64298 5.69036C8.2681 6.31548 9.11594 6.66667 10 6.66667V5.33333ZM12 3.33333C12 3.86377 11.7893 4.37247 11.4142 4.74755C11.0391 5.12262 10.5304 5.33333 10 5.33333V6.66667C10.8841 6.66667 11.7319 6.31548 12.357 5.69036C12.9821 5.06523 13.3333 4.21739 13.3333 3.33333H12ZM10 1.33333C10.5304 1.33333 11.0391 1.54405 11.4142 1.91912C11.7893 2.29419 12 2.8029 12 3.33333H13.3333C13.3333 2.44928 12.9821 1.60143 12.357 0.976311C11.7319 0.351189 10.8841 0 10 0V1.33333ZM10 0C9.11594 0 8.2681 0.351189 7.64298 0.976311C7.01786 1.60143 6.66667 2.44928 6.66667 3.33333H8C8 2.8029 8.21071 2.29419 8.58579 1.91912C8.96086 1.54405 9.46957 1.33333 10 1.33333V0Z" fill="white"/>
</svg>
