<svg width="21" height="21" viewBox="0 0 21 21" fill="none" xmlns="http://www.w3.org/2000/svg">
<path d="M21 2.4793C20.2277 2.8802 19.3981 3.15108 18.526 3.27351C19.4259 2.64268 20.0991 1.64984 20.4201 0.480223C19.5746 1.06856 18.6493 1.48268 17.6844 1.70459C17.0355 0.892894 16.176 0.354889 15.2393 0.174103C14.3027 -0.00668301 13.3413 0.179865 12.5044 0.704783C11.6675 1.2297 11.002 2.06362 10.6111 3.07708C10.2203 4.09053 10.1259 5.22681 10.3428 6.30951C8.62963 6.20874 6.95372 5.68708 5.4238 4.7784C3.89389 3.86972 2.54416 2.59433 1.46221 1.03498C1.09227 1.7826 0.879547 2.64941 0.879547 3.57256C0.879135 4.40361 1.05382 5.22193 1.38811 5.95491C1.7224 6.68789 2.20595 7.31288 2.79587 7.77441C2.11172 7.74891 1.44267 7.53234 0.844402 7.14273V7.20774C0.844333 8.37331 1.18848 9.50302 1.81846 10.4052C2.44843 11.3073 3.32542 11.9263 4.30063 12.1572C3.66597 12.3584 3.00058 12.3881 2.35471 12.2439C2.62985 13.2468 3.16581 14.1238 3.88755 14.7521C4.60929 15.3805 5.48068 15.7287 6.37972 15.748C4.85354 17.1516 2.96871 17.9129 1.02845 17.9096C0.684753 17.9097 0.341346 17.8862 0 17.8391C1.96948 19.3227 4.2621 20.11 6.60354 20.1069C14.5296 20.1069 18.8626 12.4162 18.8626 5.74608C18.8626 5.52938 18.858 5.31051 18.8497 5.09381C19.6925 4.37975 20.42 3.49552 20.9982 2.48255L21 2.4793Z" fill="white"/>
</svg>
